<svg width="909.5415199408579" height="2149.3260343684206" viewBox="0 0 909.5415199408579 2149.3260343684206" class="keymap" xmlns="http://www.w3.org/2000/svg" xmlns:xlink="http://www.w3.org/1999/xlink">
<style>/* inherit to force styles through use tags*/
svg path {
    fill: inherit;
}
/* font and background color specifications */
svg.keymap {
    font-family: SFMono-Regular,Consolas,Liberation Mono,Menlo,monospace;
    font-size: 14px;
    font-kerning: normal;
    text-rendering: optimizeLegibility;
    fill: #24292e;
}

/* default key styling */
rect.key {
    fill: #f6f8fa;
    stroke: #c9cccf;
    stroke-width: 1;
}

/* color accent for combo boxes */
rect.combo {
    fill: #cdf;
}

/* color accent for held keys */
rect.held, rect.combo.held {
    fill: #fdd;
}

/* color accent for ghost (optional) keys */
rect.ghost, rect.combo.ghost {
    stroke-dasharray: 4, 4;
    stroke-width: 2;
}

text {
    text-anchor: middle;
    dominant-baseline: middle;
}

/* styling for layer labels */
text.label {
    font-weight: bold;
    text-anchor: start;
    stroke: white;
    stroke-width: 2;
    paint-order: stroke;
}

/* styling for combo tap, and key hold/shifted label text */
text.combo, text.hold, text.shifted {
    font-size: 11px;
}

text.hold {
    text-anchor: middle;
    dominant-baseline: auto;
}

text.shifted {
    text-anchor: middle;
    dominant-baseline: hanging;
}

/* styling for hold/shifted label text in combo box */
text.combo.hold, text.combo.shifted {
    font-size: 8px;
}

/* lighter symbol for transparent keys */
text.trans {
    fill: #7b7e81;
}

/* styling for combo dendrons */
path.combo {
    stroke-width: 1;
    stroke: gray;
    fill: none;
}

/* Start Tabler Icons Cleanup */
/* cannot use height/width with glyphs */
.icon-tabler > path {
    fill: inherit;
    stroke: inherit;
}
/* hide tabler's default box */
.icon-tabler > path[stroke="none"][fill="none"] {
    visibility: collapse;
}
/* End Tabler Icons Cleanup */
</style>
<g class="layer-DEF">
<text x="30.0" y="28.0" class="label">DEF:</text>
<g transform="rotate(-15.0, 59.651045923136095, 183.39275306673716)">
<rect rx="6.0" ry="6.0" x="31.999045923136098" y="157.39275306673716" width="55.303999999999995" height="52.0" class="key"/>
<text x="59.651045923136095" y="183.39275306673716" class="tap">Q</text>
</g>
<g transform="rotate(-5.0, 131.94810654845344, 115.92244036079694)">
<rect rx="6.0" ry="6.0" x="104.29610654845344" y="89.92244036079694" width="55.303999999999995" height="52.0" class="key"/>
<text x="131.94810654845344" y="115.92244036079694" class="tap">W</text>
</g>
<rect rx="6.0" ry="6.0" x="175.472" y="66.4" width="55.303999999999995" height="52.0" class="key"/>
<text x="203.124" y="92.4" class="tap">F</text>
<rect rx="6.0" ry="6.0" x="234.71999999999997" y="87.34400000000001" width="55.303999999999995" height="52.0" class="key"/>
<text x="262.37199999999996" y="113.34400000000001" class="tap">P</text>
<rect rx="6.0" ry="6.0" x="294.024" y="96.80800000000002" width="55.303999999999995" height="52.0" class="key"/>
<text x="321.676" y="122.80800000000002" class="tap">B</text>
<rect rx="6.0" ry="6.0" x="553.976" y="96.80800000000002" width="55.303999999999995" height="52.0" class="key"/>
<text x="581.628" y="122.80800000000002" class="tap">K</text>
<rect rx="6.0" ry="6.0" x="613.28" y="87.34400000000001" width="55.303999999999995" height="52.0" class="key"/>
<text x="640.932" y="113.34400000000001" class="tap">L</text>
<rect rx="6.0" ry="6.0" x="672.528" y="66.4" width="55.303999999999995" height="52.0" class="key"/>
<text x="700.1800000000001" y="92.4" class="tap">U</text>
<g transform="rotate(5.0, 771.3561065484535, 115.91755963920306)">
<rect rx="6.0" ry="6.0" x="743.7041065484534" y="89.91755963920306" width="55.303999999999995" height="52.0" class="key"/>
<text x="771.3561065484535" y="115.91755963920306" class="tap">Y</text>
</g>
<g transform="rotate(15.0, 843.6529540768639, 183.39275306673716)">
<rect rx="6.0" ry="6.0" x="816.0009540768639" y="157.39275306673716" width="55.303999999999995" height="52.0" class="key"/>
<text x="843.6529540768639" y="183.39275306673716" class="tap">&#x27;</text>
</g>
<g transform="rotate(-15.0, 74.1550459231361, 237.48875306673713)">
<rect rx="6.0" ry="6.0" x="46.5030459231361" y="211.48875306673713" width="55.303999999999995" height="52.0" class="key"/>
<text x="74.1550459231361" y="237.48875306673713" class="tap">A</text>
<text x="74.1550459231361" y="261.4887530667371" class="hold">Ctrl</text>
</g>
<g transform="rotate(-5.0, 136.81989345154656, 171.69355963920304)">
<rect rx="6.0" ry="6.0" x="109.16789345154656" y="145.69355963920304" width="55.303999999999995" height="52.0" class="key"/>
<text x="136.81989345154656" y="171.69355963920304" class="tap">R</text>
<text x="136.81989345154656" y="195.69355963920304" class="hold">Gui</text>
</g>
<rect rx="6.0" ry="6.0" x="175.472" y="122.344" width="55.303999999999995" height="52.0" class="key"/>
<text x="203.124" y="148.344" class="tap">S</text>
<text x="203.124" y="172.344" class="hold">Alt</text>
<rect rx="6.0" ry="6.0" x="234.71999999999997" y="143.344" width="55.303999999999995" height="52.0" class="key"/>
<text x="262.37199999999996" y="169.344" class="tap">T</text>
<text x="262.37199999999996" y="193.344" class="hold">Shift</text>
<rect rx="6.0" ry="6.0" x="294.024" y="152.80800000000002" width="55.303999999999995" height="52.0" class="key"/>
<text x="321.676" y="178.80800000000002" class="tap">G</text>
<rect rx="6.0" ry="6.0" x="553.976" y="152.80800000000002" width="55.303999999999995" height="52.0" class="key"/>
<text x="581.628" y="178.80800000000002" class="tap">M</text>
<rect rx="6.0" ry="6.0" x="613.28" y="143.344" width="55.303999999999995" height="52.0" class="key"/>
<text x="640.932" y="169.344" class="tap">N</text>
<text x="640.932" y="193.344" class="hold">Shift</text>
<rect rx="6.0" ry="6.0" x="672.528" y="122.344" width="55.303999999999995" height="52.0" class="key"/>
<text x="700.1800000000001" y="148.344" class="tap">E</text>
<text x="700.1800000000001" y="172.344" class="hold">Alt</text>
<g transform="rotate(5.0, 766.4841065484535, 171.69355963920307)">
<rect rx="6.0" ry="6.0" x="738.8321065484535" y="145.69355963920307" width="55.303999999999995" height="52.0" class="key"/>
<text x="766.4841065484535" y="171.69355963920307" class="tap">I</text>
<text x="766.4841065484535" y="195.69355963920307" class="hold">Gui</text>
</g>
<g transform="rotate(15.0, 829.1489540768639, 237.48875306673713)">
<rect rx="6.0" ry="6.0" x="801.4969540768639" y="211.48875306673713" width="55.303999999999995" height="52.0" class="key"/>
<text x="829.1489540768639" y="237.48875306673713" class="tap">O</text>
<text x="829.1489540768639" y="261.4887530667371" class="hold">Ctrl</text>
</g>
<g transform="rotate(-15.0, 88.65904592313609, 291.5847530667371)">
<rect rx="6.0" ry="6.0" x="61.00704592313609" y="265.5847530667371" width="55.303999999999995" height="52.0" class="key"/>
<text x="88.65904592313609" y="291.5847530667371" class="tap">Z</text>
</g>
<g transform="rotate(-5.0, 141.69189345154655, 227.46955963920308)">
<rect rx="6.0" ry="6.0" x="114.03989345154655" y="201.46955963920308" width="55.303999999999995" height="52.0" class="key"/>
<text x="141.69189345154655" y="227.46955963920308" class="tap">X</text>
</g>
<rect rx="6.0" ry="6.0" x="175.472" y="178.34400000000002" width="55.303999999999995" height="52.0" class="key"/>
<text x="203.124" y="204.34400000000002" class="tap">C</text>
<rect rx="6.0" ry="6.0" x="234.71999999999997" y="199.34400000000002" width="55.303999999999995" height="52.0" class="key"/>
<text x="262.37199999999996" y="225.34400000000002" class="tap">D</text>
<rect rx="6.0" ry="6.0" x="294.024" y="208.80800000000002" width="55.303999999999995" height="52.0" class="key"/>
<text x="321.676" y="234.80800000000002" class="tap">V</text>
<rect rx="6.0" ry="6.0" x="553.976" y="208.80800000000002" width="55.303999999999995" height="52.0" class="key"/>
<text x="581.628" y="234.80800000000002" class="tap">J</text>
<rect rx="6.0" ry="6.0" x="613.28" y="199.34400000000002" width="55.303999999999995" height="52.0" class="key"/>
<text x="640.932" y="225.34400000000002" class="tap">H</text>
<rect rx="6.0" ry="6.0" x="672.528" y="178.34400000000002" width="55.303999999999995" height="52.0" class="key"/>
<text x="700.1800000000001" y="204.34400000000002" class="tap">,</text>
<g transform="rotate(5.0, 761.6121065484535, 227.46955963920308)">
<rect rx="6.0" ry="6.0" x="733.9601065484535" y="201.46955963920308" width="55.303999999999995" height="52.0" class="key"/>
<text x="761.6121065484535" y="227.46955963920308" class="tap">.</text>
</g>
<g transform="rotate(15.0, 814.6430459231361, 291.59924693326286)">
<rect rx="6.0" ry="6.0" x="786.9910459231361" y="265.59924693326286" width="55.303999999999995" height="52.0" class="key"/>
<text x="814.6430459231361" y="291.59924693326286" class="tap">/</text>
</g>
<g transform="rotate(-15.0, 317.69904592313605, 319.7527530667371)">
<rect rx="6.0" ry="6.0" x="290.04704592313607" y="293.7527530667371" width="55.303999999999995" height="52.0" class="key"/>
<text x="317.69904592313605" y="319.7527530667371" class="tap">Esc</text>
<text x="317.69904592313605" y="343.7527530667371" class="hold">Ctrl</text>
</g>
<rect rx="6.0" ry="6.0" x="354.728" y="286.76" width="55.303999999999995" height="52.0" class="key"/>
<text x="382.38" y="312.76" class="tap">⌫</text>
<text x="382.38" y="336.76" class="hold">NAV</text>
<rect rx="6.0" ry="6.0" x="493.272" y="286.76" width="55.303999999999995" height="52.0" class="key"/>
<text x="520.924" y="312.76" class="tap">␣</text>
<text x="520.924" y="336.76" class="hold">SYM</text>
<g transform="rotate(15.0, 585.6030459231362, 319.76724693326287)">
<rect rx="6.0" ry="6.0" x="557.9510459231361" y="293.76724693326287" width="55.303999999999995" height="52.0" class="key"/>
<text x="585.6030459231362" y="319.76724693326287" class="tap">⮠</text>
<text x="585.6030459231362" y="343.76724693326287" class="hold">Shift</text>
</g>
<rect rx="6.0" ry="6.0" x="218.748" y="89.87200000000001" width="28.0" height="26.0" class="combo"/>
<text x="232.748" y="102.87200000000001" class="combo tap">J</text>
<rect rx="6.0" ry="6.0" x="158.4079467257733" y="202.90677981960155" width="28.0" height="26.0" class="combo"/>
<text x="172.4079467257733" y="215.90677981960155" class="combo tap">Z</text>
<rect rx="6.0" ry="6.0" x="218.748" y="201.84400000000002" width="28.0" height="26.0" class="combo"/>
<text x="232.748" y="214.84400000000002" class="combo tap">V</text>
<rect rx="6.0" ry="6.0" x="656.556" y="89.87200000000001" width="28.0" height="26.0" class="combo"/>
<text x="670.556" y="102.87200000000001" class="combo tap">;</text>
<rect rx="6.0" ry="6.0" x="721.7680532742268" y="91.15877981960153" width="28.0" height="26.0" class="combo"/>
<text x="735.7680532742268" y="104.15877981960153" class="combo tap">`</text>
<rect rx="6.0" ry="6.0" x="656.556" y="201.84400000000002" width="28.0" height="26.0" class="combo"/>
<text x="670.556" y="214.84400000000002" class="combo tap">\</text>
<rect rx="6.0" ry="6.0" x="716.8960532742268" y="202.90677981960155" width="28.0" height="26.0" class="combo"/>
<text x="730.8960532742268" y="215.90677981960155" class="combo tap">/</text>
<rect rx="6.0" ry="6.0" x="218.748" y="145.844" width="28.0" height="26.0" class="combo"/>
<text x="232.748" y="158.844" class="combo tap">(</text>
<rect rx="6.0" ry="6.0" x="656.556" y="145.844" width="28.0" height="26.0" class="combo"/>
<text x="670.556" y="158.844" class="combo tap">)</text>
<rect rx="6.0" ry="6.0" x="155.97194672577328" y="147.01877981960155" width="28.0" height="26.0" class="combo"/>
<text x="169.97194672577328" y="160.01877981960155" class="combo tap">[</text>
<rect rx="6.0" ry="6.0" x="719.3320532742268" y="147.01877981960155" width="28.0" height="26.0" class="combo"/>
<text x="733.3320532742268" y="160.01877981960155" class="combo tap">]</text>
<path d="M199.59594672577327,131.94400000000002 h-56.77605327422671 a6.0,6.0 0 0 0 -6.0,6.0 v15.08289297253636" class="combo"/>
<path d="M199.59594672577327,131.94400000000002 h56.77605327422668 a6.0,6.0 0 0 1 6.0,6.0 v12.73333333333331" class="combo"/>
<rect rx="6.0" ry="6.0" x="185.59594672577327" y="118.94400000000002" width="28.0" height="26.0" class="combo"/>
<text x="199.59594672577327" y="131.94400000000002" class="combo tap">↹</text>
<path d="M703.7080532742268,131.94400000000002 h-56.7760532742268 a6.0,6.0 0 0 0 -6.0,6.0 v12.73333333333331" class="combo"/>
<path d="M703.7080532742268,131.94400000000002 h56.77605327422668 a6.0,6.0 0 0 1 6.0,6.0 v15.082892972536388" class="combo"/>
<rect rx="6.0" ry="6.0" x="689.7080532742268" y="118.94400000000002" width="28.0" height="26.0" class="combo"/>
<text x="703.7080532742268" y="131.94400000000002" class="combo tap">⌫</text>
<path d="M451.652,140.344 h-183.28000000000003 a6.0,6.0 0 0 0 -6.0,6.0 v4.333333333333332" class="combo"/>
<path d="M451.652,140.344 h183.28000000000003 a6.0,6.0 0 0 1 6.0,6.0 v4.333333333333332" class="combo"/>
<rect rx="6.0" ry="6.0" x="437.652" y="127.344" width="28.0" height="26.0" class="combo"/>
<text x="451.652" y="140.344" class="combo tap">
<tspan x="451.652" dy="-0.6em">Caps</tspan><tspan x="451.652" dy="1.2em">Wrd</tspan></text>
</g>
<g class="layer-APT">
<text x="30.0" y="382.4876723947367" class="label">APT:</text>
<g transform="rotate(-15.0, 59.651045923136095, 537.8804254614738)">
<rect rx="6.0" ry="6.0" x="31.999045923136098" y="511.8804254614738" width="55.303999999999995" height="52.0" class="key"/>
<text x="59.651045923136095" y="537.8804254614738" class="tap">W</text>
</g>
<g transform="rotate(-5.0, 131.94810654845344, 470.4101127555336)">
<rect rx="6.0" ry="6.0" x="104.29610654845344" y="444.4101127555336" width="55.303999999999995" height="52.0" class="key"/>
<text x="131.94810654845344" y="470.4101127555336" class="tap">C</text>
</g>
<rect rx="6.0" ry="6.0" x="175.472" y="420.8876723947367" width="55.303999999999995" height="52.0" class="key"/>
<text x="203.124" y="446.8876723947367" class="tap">G</text>
<rect rx="6.0" ry="6.0" x="234.71999999999997" y="441.8316723947367" width="55.303999999999995" height="52.0" class="key"/>
<text x="262.37199999999996" y="467.8316723947367" class="tap">D</text>
<rect rx="6.0" ry="6.0" x="294.024" y="451.2956723947367" width="55.303999999999995" height="52.0" class="key"/>
<text x="321.676" y="477.2956723947367" class="tap">B</text>
<rect rx="6.0" ry="6.0" x="553.976" y="451.2956723947367" width="55.303999999999995" height="52.0" class="key"/>
<text x="581.628" y="477.2956723947367" class="tap">J</text>
<rect rx="6.0" ry="6.0" x="613.28" y="441.8316723947367" width="55.303999999999995" height="52.0" class="key"/>
<text x="640.932" y="467.8316723947367" class="tap">L</text>
<rect rx="6.0" ry="6.0" x="672.528" y="420.8876723947367" width="55.303999999999995" height="52.0" class="key"/>
<text x="700.1800000000001" y="446.8876723947367" class="tap">U</text>
<g transform="rotate(5.0, 771.3561065484535, 470.40523203393974)">
<rect rx="6.0" ry="6.0" x="743.7041065484534" y="444.40523203393974" width="55.303999999999995" height="52.0" class="key"/>
<text x="771.3561065484535" y="470.40523203393974" class="tap">O</text>
</g>
<g transform="rotate(15.0, 843.6529540768639, 537.8804254614738)">
<rect rx="6.0" ry="6.0" x="816.0009540768639" y="511.8804254614738" width="55.303999999999995" height="52.0" class="key"/>
<text x="843.6529540768639" y="537.8804254614738" class="tap">Y</text>
</g>
<g transform="rotate(-15.0, 74.1550459231361, 591.9764254614738)">
<rect rx="6.0" ry="6.0" x="46.5030459231361" y="565.9764254614738" width="55.303999999999995" height="52.0" class="key"/>
<text x="74.1550459231361" y="591.9764254614738" class="tap">R</text>
<text x="74.1550459231361" y="615.9764254614738" class="hold">Ctrl</text>
</g>
<g transform="rotate(-5.0, 136.81989345154656, 526.1812320339398)">
<rect rx="6.0" ry="6.0" x="109.16789345154656" y="500.18123203393975" width="55.303999999999995" height="52.0" class="key"/>
<text x="136.81989345154656" y="526.1812320339398" class="tap">S</text>
<text x="136.81989345154656" y="550.1812320339398" class="hold">Gui</text>
</g>
<rect rx="6.0" ry="6.0" x="175.472" y="476.8316723947367" width="55.303999999999995" height="52.0" class="key"/>
<text x="203.124" y="502.8316723947367" class="tap">T</text>
<text x="203.124" y="526.8316723947366" class="hold">Alt</text>
<rect rx="6.0" ry="6.0" x="234.71999999999997" y="497.83167239473664" width="55.303999999999995" height="52.0" class="key"/>
<text x="262.37199999999996" y="523.8316723947366" class="tap">H</text>
<text x="262.37199999999996" y="547.8316723947366" class="hold">Shift</text>
<rect rx="6.0" ry="6.0" x="294.024" y="507.2956723947367" width="55.303999999999995" height="52.0" class="key"/>
<text x="321.676" y="533.2956723947367" class="tap">K</text>
<rect rx="6.0" ry="6.0" x="553.976" y="507.2956723947367" width="55.303999999999995" height="52.0" class="key"/>
<text x="581.628" y="533.2956723947367" class="tap">X</text>
<rect rx="6.0" ry="6.0" x="613.28" y="497.83167239473664" width="55.303999999999995" height="52.0" class="key"/>
<text x="640.932" y="523.8316723947366" class="tap">N</text>
<text x="640.932" y="547.8316723947366" class="hold">Shift</text>
<rect rx="6.0" ry="6.0" x="672.528" y="476.8316723947367" width="55.303999999999995" height="52.0" class="key"/>
<text x="700.1800000000001" y="502.8316723947367" class="tap">E</text>
<text x="700.1800000000001" y="526.8316723947366" class="hold">Alt</text>
<g transform="rotate(5.0, 766.4841065484535, 526.1812320339398)">
<rect rx="6.0" ry="6.0" x="738.8321065484535" y="500.18123203393975" width="55.303999999999995" height="52.0" class="key"/>
<text x="766.4841065484535" y="526.1812320339398" class="tap">A</text>
<text x="766.4841065484535" y="550.1812320339398" class="hold">Gui</text>
</g>
<g transform="rotate(15.0, 829.1489540768639, 591.9764254614738)">
<rect rx="6.0" ry="6.0" x="801.4969540768639" y="565.9764254614738" width="55.303999999999995" height="52.0" class="key"/>
<text x="829.1489540768639" y="591.9764254614738" class="tap">I</text>
<text x="829.1489540768639" y="615.9764254614738" class="hold">Ctrl</text>
</g>
<g transform="rotate(-15.0, 88.65904592313609, 646.0724254614738)">
<rect rx="6.0" ry="6.0" x="61.00704592313609" y="620.0724254614738" width="55.303999999999995" height="52.0" class="key"/>
</g>
<g transform="rotate(-5.0, 141.69189345154655, 581.9572320339398)">
<rect rx="6.0" ry="6.0" x="114.03989345154655" y="555.9572320339398" width="55.303999999999995" height="52.0" class="key"/>
<text x="141.69189345154655" y="581.9572320339398" class="tap">F</text>
</g>
<rect rx="6.0" ry="6.0" x="175.472" y="532.8316723947366" width="55.303999999999995" height="52.0" class="key"/>
<text x="203.124" y="558.8316723947366" class="tap">M</text>
<rect rx="6.0" ry="6.0" x="234.71999999999997" y="553.8316723947366" width="55.303999999999995" height="52.0" class="key"/>
<text x="262.37199999999996" y="579.8316723947366" class="tap">P</text>
<rect rx="6.0" ry="6.0" x="294.024" y="563.2956723947367" width="55.303999999999995" height="52.0" class="key"/>
<rect rx="6.0" ry="6.0" x="553.976" y="563.2956723947367" width="55.303999999999995" height="52.0" class="key"/>
<rect rx="6.0" ry="6.0" x="613.28" y="553.8316723947366" width="55.303999999999995" height="52.0" class="key"/>
<text x="640.932" y="579.8316723947366" class="tap">&#x27;</text>
<rect rx="6.0" ry="6.0" x="672.528" y="532.8316723947366" width="55.303999999999995" height="52.0" class="key"/>
<text x="700.1800000000001" y="558.8316723947366" class="tap">,</text>
<g transform="rotate(5.0, 761.6121065484535, 581.9572320339398)">
<rect rx="6.0" ry="6.0" x="733.9601065484535" y="555.9572320339398" width="55.303999999999995" height="52.0" class="key"/>
<text x="761.6121065484535" y="581.9572320339398" class="tap">.</text>
</g>
<g transform="rotate(15.0, 814.6430459231361, 646.0869193279996)">
<rect rx="6.0" ry="6.0" x="786.9910459231361" y="620.0869193279996" width="55.303999999999995" height="52.0" class="key"/>
</g>
<g transform="rotate(-15.0, 317.69904592313605, 674.2404254614738)">
<rect rx="6.0" ry="6.0" x="290.04704592313607" y="648.2404254614738" width="55.303999999999995" height="52.0" class="key"/>
<text x="317.69904592313605" y="674.2404254614738" class="tap">Esc</text>
<text x="317.69904592313605" y="698.2404254614738" class="hold">Ctrl</text>
</g>
<rect rx="6.0" ry="6.0" x="354.728" y="641.2476723947367" width="55.303999999999995" height="52.0" class="key"/>
<text x="382.38" y="667.2476723947367" class="tap">⌫</text>
<text x="382.38" y="691.2476723947367" class="hold">NAV</text>
<rect rx="6.0" ry="6.0" x="493.272" y="641.2476723947367" width="55.303999999999995" height="52.0" class="key"/>
<text x="520.924" y="667.2476723947367" class="tap">␣</text>
<text x="520.924" y="691.2476723947367" class="hold">SYM</text>
<g transform="rotate(15.0, 585.6030459231362, 674.2549193279996)">
<rect rx="6.0" ry="6.0" x="557.9510459231361" y="648.2549193279996" width="55.303999999999995" height="52.0" class="key"/>
<text x="585.6030459231362" y="674.2549193279996" class="tap">⮠</text>
<text x="585.6030459231362" y="698.2549193279996" class="hold">Shift</text>
</g>
<rect rx="6.0" ry="6.0" x="218.748" y="444.35967239473666" width="28.0" height="26.0" class="combo"/>
<text x="232.748" y="457.35967239473666" class="combo tap">Q</text>
<rect rx="6.0" ry="6.0" x="158.4079467257733" y="557.3944522143382" width="28.0" height="26.0" class="combo"/>
<text x="172.4079467257733" y="570.3944522143382" class="combo tap">Z</text>
<rect rx="6.0" ry="6.0" x="153.53605327422673" y="445.64889257513516" width="28.0" height="26.0" class="combo"/>
<text x="167.53605327422673" y="458.64889257513516" class="combo tap">V</text>
<rect rx="6.0" ry="6.0" x="656.556" y="444.35967239473666" width="28.0" height="26.0" class="combo"/>
<text x="670.556" y="457.35967239473666" class="combo tap">;</text>
<rect rx="6.0" ry="6.0" x="721.7680532742268" y="445.6464522143382" width="28.0" height="26.0" class="combo"/>
<text x="735.7680532742268" y="458.6464522143382" class="combo tap">`</text>
<rect rx="6.0" ry="6.0" x="656.556" y="556.3316723947366" width="28.0" height="26.0" class="combo"/>
<text x="670.556" y="569.3316723947366" class="combo tap">\</text>
<rect rx="6.0" ry="6.0" x="716.8960532742268" y="557.3944522143382" width="28.0" height="26.0" class="combo"/>
<text x="730.8960532742268" y="570.3944522143382" class="combo tap">/</text>
<rect rx="6.0" ry="6.0" x="218.748" y="500.33167239473664" width="28.0" height="26.0" class="combo"/>
<text x="232.748" y="513.3316723947366" class="combo tap">(</text>
<rect rx="6.0" ry="6.0" x="656.556" y="500.33167239473664" width="28.0" height="26.0" class="combo"/>
<text x="670.556" y="513.3316723947366" class="combo tap">)</text>
<rect rx="6.0" ry="6.0" x="155.97194672577328" y="501.5064522143382" width="28.0" height="26.0" class="combo"/>
<text x="169.97194672577328" y="514.5064522143382" class="combo tap">[</text>
<rect rx="6.0" ry="6.0" x="719.3320532742268" y="501.5064522143382" width="28.0" height="26.0" class="combo"/>
<text x="733.3320532742268" y="514.5064522143382" class="combo tap">]</text>
<path d="M199.59594672577327,486.43167239473667 h-56.77605327422671 a6.0,6.0 0 0 0 -6.0,6.0 v15.082892972536417" class="combo"/>
<path d="M199.59594672577327,486.43167239473667 h56.77605327422668 a6.0,6.0 0 0 1 6.0,6.0 v12.73333333333331" class="combo"/>
<rect rx="6.0" ry="6.0" x="185.59594672577327" y="473.43167239473667" width="28.0" height="26.0" class="combo"/>
<text x="199.59594672577327" y="486.43167239473667" class="combo tap">↹</text>
<path d="M703.7080532742268,486.43167239473667 h-56.7760532742268 a6.0,6.0 0 0 0 -6.0,6.0 v12.73333333333331" class="combo"/>
<path d="M703.7080532742268,486.43167239473667 h56.77605327422668 a6.0,6.0 0 0 1 6.0,6.0 v15.082892972536417" class="combo"/>
<rect rx="6.0" ry="6.0" x="689.7080532742268" y="473.43167239473667" width="28.0" height="26.0" class="combo"/>
<text x="703.7080532742268" y="486.43167239473667" class="combo tap">⌫</text>
<path d="M451.652,494.8316723947367 h-183.28000000000003 a6.0,6.0 0 0 0 -6.0,6.0 v4.333333333333275" class="combo"/>
<path d="M451.652,494.8316723947367 h183.28000000000003 a6.0,6.0 0 0 1 6.0,6.0 v4.333333333333275" class="combo"/>
<rect rx="6.0" ry="6.0" x="437.652" y="481.8316723947367" width="28.0" height="26.0" class="combo"/>
<text x="451.652" y="494.8316723947367" class="combo tap">
<tspan x="451.652" dy="-0.6em">Caps</tspan><tspan x="451.652" dy="1.2em">Wrd</tspan></text>
</g>
<g class="layer-GME">
<text x="30.0" y="736.9753447894734" class="label">GME:</text>
<g transform="rotate(-15.0, 59.651045923136095, 883.9680978562105)">
<rect rx="6.0" ry="6.0" x="31.999045923136098" y="857.9680978562105" width="55.303999999999995" height="52.0" class="key"/>
<text x="59.651045923136095" y="883.9680978562105" class="tap">↹</text>
</g>
<g transform="rotate(-5.0, 131.94810654845344, 816.4977851502704)">
<rect rx="6.0" ry="6.0" x="104.29610654845344" y="790.4977851502704" width="55.303999999999995" height="52.0" class="key"/>
<text x="131.94810654845344" y="816.4977851502704" class="tap">Q</text>
</g>
<rect rx="6.0" ry="6.0" x="175.472" y="766.9753447894734" width="55.303999999999995" height="52.0" class="key"/>
<text x="203.124" y="792.9753447894734" class="tap">W</text>
<rect rx="6.0" ry="6.0" x="234.71999999999997" y="787.9193447894734" width="55.303999999999995" height="52.0" class="key"/>
<text x="262.37199999999996" y="813.9193447894734" class="tap">E</text>
<rect rx="6.0" ry="6.0" x="294.024" y="797.3833447894734" width="55.303999999999995" height="52.0" class="key"/>
<text x="321.676" y="823.3833447894734" class="tap">R</text>
<rect rx="6.0" ry="6.0" x="553.976" y="797.3833447894734" width="55.303999999999995" height="52.0" class="key"/>
<text x="581.628" y="823.3833447894734" class="tap">Y</text>
<rect rx="6.0" ry="6.0" x="613.28" y="787.9193447894734" width="55.303999999999995" height="52.0" class="key"/>
<text x="640.932" y="813.9193447894734" class="tap">U</text>
<rect rx="6.0" ry="6.0" x="672.528" y="766.9753447894734" width="55.303999999999995" height="52.0" class="key"/>
<text x="700.1800000000001" y="792.9753447894734" class="tap">I</text>
<g transform="rotate(5.0, 771.3561065484535, 816.4929044286764)">
<rect rx="6.0" ry="6.0" x="743.7041065484534" y="790.4929044286764" width="55.303999999999995" height="52.0" class="key"/>
<text x="771.3561065484535" y="816.4929044286764" class="tap">O</text>
</g>
<g transform="rotate(15.0, 843.6529540768639, 883.9680978562105)">
<rect rx="6.0" ry="6.0" x="816.0009540768639" y="857.9680978562105" width="55.303999999999995" height="52.0" class="key"/>
<text x="843.6529540768639" y="883.9680978562105" class="tap">P</text>
</g>
<g transform="rotate(-15.0, 74.1550459231361, 938.0640978562105)">
<rect rx="6.0" ry="6.0" x="46.5030459231361" y="912.0640978562105" width="55.303999999999995" height="52.0" class="key"/>
<text x="74.1550459231361" y="938.0640978562105" class="tap">Esc</text>
</g>
<g transform="rotate(-5.0, 136.81989345154656, 872.2689044286765)">
<rect rx="6.0" ry="6.0" x="109.16789345154656" y="846.2689044286765" width="55.303999999999995" height="52.0" class="key"/>
<text x="136.81989345154656" y="872.2689044286765" class="tap">A</text>
</g>
<rect rx="6.0" ry="6.0" x="175.472" y="822.9193447894734" width="55.303999999999995" height="52.0" class="key"/>
<text x="203.124" y="848.9193447894734" class="tap">S</text>
<rect rx="6.0" ry="6.0" x="234.71999999999997" y="843.9193447894734" width="55.303999999999995" height="52.0" class="key"/>
<text x="262.37199999999996" y="869.9193447894734" class="tap">D</text>
<rect rx="6.0" ry="6.0" x="294.024" y="853.3833447894734" width="55.303999999999995" height="52.0" class="key"/>
<text x="321.676" y="879.3833447894734" class="tap">F</text>
<rect rx="6.0" ry="6.0" x="553.976" y="853.3833447894734" width="55.303999999999995" height="52.0" class="key"/>
<text x="581.628" y="879.3833447894734" class="tap">H</text>
<rect rx="6.0" ry="6.0" x="613.28" y="843.9193447894734" width="55.303999999999995" height="52.0" class="key"/>
<text x="640.932" y="869.9193447894734" class="tap">J</text>
<rect rx="6.0" ry="6.0" x="672.528" y="822.9193447894734" width="55.303999999999995" height="52.0" class="key"/>
<text x="700.1800000000001" y="848.9193447894734" class="tap">K</text>
<g transform="rotate(5.0, 766.4841065484535, 872.2689044286765)">
<rect rx="6.0" ry="6.0" x="738.8321065484535" y="846.2689044286765" width="55.303999999999995" height="52.0" class="key"/>
<text x="766.4841065484535" y="872.2689044286765" class="tap">L</text>
</g>
<g transform="rotate(15.0, 829.1489540768639, 938.0640978562105)">
<rect rx="6.0" ry="6.0" x="801.4969540768639" y="912.0640978562105" width="55.303999999999995" height="52.0" class="key"/>
<text x="829.1489540768639" y="938.0640978562105" class="tap">GME</text>
</g>
<g transform="rotate(-15.0, 88.65904592313609, 992.1600978562105)">
<rect rx="6.0" ry="6.0" x="61.00704592313609" y="966.1600978562105" width="55.303999999999995" height="52.0" class="key"/>
<text x="88.65904592313609" y="992.1600978562105" class="tap">Shift</text>
</g>
<g transform="rotate(-5.0, 141.69189345154655, 928.0449044286765)">
<rect rx="6.0" ry="6.0" x="114.03989345154655" y="902.0449044286765" width="55.303999999999995" height="52.0" class="key"/>
<text x="141.69189345154655" y="928.0449044286765" class="tap">Z</text>
</g>
<rect rx="6.0" ry="6.0" x="175.472" y="878.9193447894734" width="55.303999999999995" height="52.0" class="key"/>
<text x="203.124" y="904.9193447894734" class="tap">X</text>
<rect rx="6.0" ry="6.0" x="234.71999999999997" y="899.9193447894734" width="55.303999999999995" height="52.0" class="key"/>
<text x="262.37199999999996" y="925.9193447894734" class="tap">C</text>
<rect rx="6.0" ry="6.0" x="294.024" y="909.3833447894734" width="55.303999999999995" height="52.0" class="key"/>
<text x="321.676" y="935.3833447894734" class="tap">V</text>
<rect rx="6.0" ry="6.0" x="553.976" y="909.3833447894734" width="55.303999999999995" height="52.0" class="key"/>
<text x="581.628" y="935.3833447894734" class="tap">N</text>
<rect rx="6.0" ry="6.0" x="613.28" y="899.9193447894734" width="55.303999999999995" height="52.0" class="key"/>
<text x="640.932" y="925.9193447894734" class="tap">M</text>
<rect rx="6.0" ry="6.0" x="672.528" y="878.9193447894734" width="55.303999999999995" height="52.0" class="key"/>
<text x="700.1800000000001" y="904.9193447894734" class="tap">,</text>
<g transform="rotate(5.0, 761.6121065484535, 928.0449044286765)">
<rect rx="6.0" ry="6.0" x="733.9601065484535" y="902.0449044286765" width="55.303999999999995" height="52.0" class="key"/>
<text x="761.6121065484535" y="928.0449044286765" class="tap">.</text>
</g>
<g transform="rotate(15.0, 814.6430459231361, 992.1745917227363)">
<rect rx="6.0" ry="6.0" x="786.9910459231361" y="966.1745917227363" width="55.303999999999995" height="52.0" class="key"/>
<text x="814.6430459231361" y="992.1745917227363" class="tap">/</text>
</g>
<g transform="rotate(-15.0, 317.69904592313605, 1020.3280978562105)">
<rect rx="6.0" ry="6.0" x="290.04704592313607" y="994.3280978562105" width="55.303999999999995" height="52.0" class="key"/>
<text x="317.69904592313605" y="1020.3280978562105" class="tap">Alt</text>
</g>
<rect rx="6.0" ry="6.0" x="354.728" y="987.3353447894734" width="55.303999999999995" height="52.0" class="key"/>
<text x="382.38" y="1013.3353447894734" class="tap">␣</text>
<rect rx="6.0" ry="6.0" x="493.272" y="987.3353447894734" width="55.303999999999995" height="52.0" class="key"/>
<text x="520.924" y="1013.3353447894734" class="tap">NAV</text>
<g transform="rotate(15.0, 585.6030459231362, 1020.3425917227363)">
<rect rx="6.0" ry="6.0" x="557.9510459231361" y="994.3425917227363" width="55.303999999999995" height="52.0" class="key"/>
<text x="585.6030459231362" y="1020.3425917227363" class="tap">⮠</text>
</g>
</g>
<g class="layer-SYM">
<text x="30.0" y="1083.0630171842101" class="label">SYM:</text>
<g transform="rotate(-15.0, 59.651045923136095, 1230.0557702509473)">
<rect rx="6.0" ry="6.0" x="31.999045923136098" y="1204.0557702509473" width="55.303999999999995" height="52.0" class="key"/>
<text x="59.651045923136095" y="1230.0557702509473" class="tap">!</text>
</g>
<g transform="rotate(-5.0, 131.94810654845344, 1162.585457545007)">
<rect rx="6.0" ry="6.0" x="104.29610654845344" y="1136.585457545007" width="55.303999999999995" height="52.0" class="key"/>
<text x="131.94810654845344" y="1162.585457545007" class="tap">@</text>
</g>
<rect rx="6.0" ry="6.0" x="175.472" y="1113.0630171842101" width="55.303999999999995" height="52.0" class="key"/>
<text x="203.124" y="1139.0630171842101" class="tap">#</text>
<rect rx="6.0" ry="6.0" x="234.71999999999997" y="1134.00701718421" width="55.303999999999995" height="52.0" class="key"/>
<text x="262.37199999999996" y="1160.00701718421" class="tap">$</text>
<rect rx="6.0" ry="6.0" x="294.024" y="1143.47101718421" width="55.303999999999995" height="52.0" class="key"/>
<text x="321.676" y="1169.47101718421" class="tap">%</text>
<rect rx="6.0" ry="6.0" x="553.976" y="1143.47101718421" width="55.303999999999995" height="52.0" class="key"/>
<text x="581.628" y="1169.47101718421" class="tap">/</text>
<rect rx="6.0" ry="6.0" x="613.28" y="1134.00701718421" width="55.303999999999995" height="52.0" class="key"/>
<text x="640.932" y="1160.00701718421" class="tap">7</text>
<rect rx="6.0" ry="6.0" x="672.528" y="1113.0630171842101" width="55.303999999999995" height="52.0" class="key"/>
<text x="700.1800000000001" y="1139.0630171842101" class="tap">8</text>
<g transform="rotate(5.0, 771.3561065484535, 1162.5805768234131)">
<rect rx="6.0" ry="6.0" x="743.7041065484534" y="1136.5805768234131" width="55.303999999999995" height="52.0" class="key"/>
<text x="771.3561065484535" y="1162.5805768234131" class="tap">9</text>
</g>
<g transform="rotate(15.0, 843.6529540768639, 1230.0557702509473)">
<rect rx="6.0" ry="6.0" x="816.0009540768639" y="1204.0557702509473" width="55.303999999999995" height="52.0" class="key"/>
<text x="843.6529540768639" y="1230.0557702509473" class="tap">,</text>
</g>
<g transform="rotate(-15.0, 74.1550459231361, 1284.1517702509473)">
<rect rx="6.0" ry="6.0" x="46.5030459231361" y="1258.1517702509473" width="55.303999999999995" height="52.0" class="key"/>
<text x="74.1550459231361" y="1284.1517702509473" class="tap">+</text>
</g>
<g transform="rotate(-5.0, 136.81989345154656, 1218.3565768234132)">
<rect rx="6.0" ry="6.0" x="109.16789345154656" y="1192.3565768234132" width="55.303999999999995" height="52.0" class="key"/>
<text x="136.81989345154656" y="1218.3565768234132" class="tap">=</text>
</g>
<rect rx="6.0" ry="6.0" x="175.472" y="1169.00701718421" width="55.303999999999995" height="52.0" class="key"/>
<text x="203.124" y="1195.00701718421" class="tap">_</text>
<rect rx="6.0" ry="6.0" x="234.71999999999997" y="1190.00701718421" width="55.303999999999995" height="52.0" class="key"/>
<text x="262.37199999999996" y="1216.00701718421" class="tap">-</text>
<rect rx="6.0" ry="6.0" x="294.024" y="1199.4710171842103" width="55.303999999999995" height="52.0" class="key"/>
<text x="321.676" y="1225.4710171842103" class="tap">^</text>
<rect rx="6.0" ry="6.0" x="553.976" y="1199.4710171842103" width="55.303999999999995" height="52.0" class="key"/>
<text x="581.628" y="1225.4710171842103" class="tap">0</text>
<rect rx="6.0" ry="6.0" x="613.28" y="1190.00701718421" width="55.303999999999995" height="52.0" class="key"/>
<text x="640.932" y="1216.00701718421" class="tap">4</text>
<rect rx="6.0" ry="6.0" x="672.528" y="1169.00701718421" width="55.303999999999995" height="52.0" class="key"/>
<text x="700.1800000000001" y="1195.00701718421" class="tap">5</text>
<g transform="rotate(5.0, 766.4841065484535, 1218.3565768234132)">
<rect rx="6.0" ry="6.0" x="738.8321065484535" y="1192.3565768234132" width="55.303999999999995" height="52.0" class="key"/>
<text x="766.4841065484535" y="1218.3565768234132" class="tap">6</text>
</g>
<g transform="rotate(15.0, 829.1489540768639, 1284.1517702509473)">
<rect rx="6.0" ry="6.0" x="801.4969540768639" y="1258.1517702509473" width="55.303999999999995" height="52.0" class="key"/>
<text x="829.1489540768639" y="1284.1517702509473" class="tap">.</text>
</g>
<g transform="rotate(-15.0, 88.65904592313609, 1338.2477702509473)">
<rect rx="6.0" ry="6.0" x="61.00704592313609" y="1312.2477702509473" width="55.303999999999995" height="52.0" class="key"/>
</g>
<g transform="rotate(-5.0, 141.69189345154655, 1274.1325768234133)">
<rect rx="6.0" ry="6.0" x="114.03989345154655" y="1248.1325768234133" width="55.303999999999995" height="52.0" class="key"/>
<text x="141.69189345154655" y="1274.1325768234133" class="tap">¿</text>
</g>
<rect rx="6.0" ry="6.0" x="175.472" y="1225.00701718421" width="55.303999999999995" height="52.0" class="key"/>
<text x="203.124" y="1251.00701718421" class="tap">*</text>
<rect rx="6.0" ry="6.0" x="234.71999999999997" y="1246.00701718421" width="55.303999999999995" height="52.0" class="key"/>
<text x="262.37199999999996" y="1272.00701718421" class="tap">&amp;</text>
<rect rx="6.0" ry="6.0" x="294.024" y="1255.4710171842103" width="55.303999999999995" height="52.0" class="key"/>
<rect rx="6.0" ry="6.0" x="553.976" y="1255.4710171842103" width="55.303999999999995" height="52.0" class="key"/>
<text x="581.628" y="1281.4710171842103" class="tap">;</text>
<rect rx="6.0" ry="6.0" x="613.28" y="1246.00701718421" width="55.303999999999995" height="52.0" class="key"/>
<text x="640.932" y="1272.00701718421" class="tap">1</text>
<rect rx="6.0" ry="6.0" x="672.528" y="1225.00701718421" width="55.303999999999995" height="52.0" class="key"/>
<text x="700.1800000000001" y="1251.00701718421" class="tap">2</text>
<g transform="rotate(5.0, 761.6121065484535, 1274.1325768234133)">
<rect rx="6.0" ry="6.0" x="733.9601065484535" y="1248.1325768234133" width="55.303999999999995" height="52.0" class="key"/>
<text x="761.6121065484535" y="1274.1325768234133" class="tap">3</text>
</g>
<g transform="rotate(15.0, 814.6430459231361, 1338.262264117473)">
<rect rx="6.0" ry="6.0" x="786.9910459231361" y="1312.262264117473" width="55.303999999999995" height="52.0" class="key"/>
<text x="814.6430459231361" y="1338.262264117473" class="tap">/</text>
</g>
<g transform="rotate(-15.0, 317.69904592313605, 1366.4157702509474)">
<rect rx="6.0" ry="6.0" x="290.04704592313607" y="1340.4157702509474" width="55.303999999999995" height="52.0" class="key"/>
<text x="317.69904592313605" y="1366.4157702509474" class="tap">␣</text>
</g>
<rect rx="6.0" ry="6.0" x="354.728" y="1333.42301718421" width="55.303999999999995" height="52.0" class="trans key"/>
<text x="382.38" y="1359.42301718421" class="trans tap">▽</text>
<rect rx="6.0" ry="6.0" x="493.272" y="1333.42301718421" width="55.303999999999995" height="52.0" class="held key"/>
<g transform="rotate(15.0, 585.6030459231362, 1366.430264117473)">
<rect rx="6.0" ry="6.0" x="557.9510459231361" y="1340.430264117473" width="55.303999999999995" height="52.0" class="key"/>
<text x="585.6030459231362" y="1366.430264117473" class="tap">Reset</text>
</g>
</g>
<g class="layer-NAV">
<text x="30.0" y="1429.1506895789469" class="label">NAV:</text>
<g transform="rotate(-15.0, 59.651045923136095, 1576.143442645684)">
<rect rx="6.0" ry="6.0" x="31.999045923136098" y="1550.143442645684" width="55.303999999999995" height="52.0" class="key"/>
<text x="59.651045923136095" y="1576.143442645684" class="tap">
<tspan x="59.651045923136095" dy="-0.6em">Win</tspan><tspan x="59.651045923136095" dy="1.2em">Close</tspan></text>
</g>
<g transform="rotate(-5.0, 131.94810654845344, 1508.6731299397438)">
<rect rx="6.0" ry="6.0" x="104.29610654845344" y="1482.6731299397438" width="55.303999999999995" height="52.0" class="key"/>
<text x="131.94810654845344" y="1508.6731299397438" class="tap">
<tspan x="131.94810654845344" dy="-0.6em">Tab</tspan><tspan x="131.94810654845344" dy="1.2em">Right</tspan></text>
</g>
<rect rx="6.0" ry="6.0" x="175.472" y="1459.1506895789469" width="55.303999999999995" height="52.0" class="key"/>
<text x="203.124" y="1485.1506895789469" class="tap">
<tspan x="203.124" dy="-0.6em">Tab</tspan><tspan x="203.124" dy="1.2em">Left</tspan></text>
<rect rx="6.0" ry="6.0" x="234.71999999999997" y="1480.0946895789468" width="55.303999999999995" height="52.0" class="key"/>
<text x="262.37199999999996" y="1506.0946895789468" class="tap">
<tspan x="262.37199999999996" dy="-0.6em">Tab</tspan><tspan x="262.37199999999996" dy="1.2em">Close</tspan></text>
<rect rx="6.0" ry="6.0" x="294.024" y="1489.5586895789468" width="55.303999999999995" height="52.0" class="key"/>
<text x="321.676" y="1515.5586895789468" class="tap">
<tspan x="321.676" dy="-0.6em">Vol</tspan><tspan x="321.676" dy="1.2em">Up</tspan></text>
<rect rx="6.0" ry="6.0" x="553.976" y="1489.5586895789468" width="55.303999999999995" height="52.0" class="key"/>
<text x="581.628" y="1515.5586895789468" class="tap">Insert</text>
<rect rx="6.0" ry="6.0" x="613.28" y="1480.0946895789468" width="55.303999999999995" height="52.0" class="key"/>
<text x="640.932" y="1506.0946895789468" class="tap">
<tspan x="640.932" dy="-0.6em">Page</tspan><tspan x="640.932" dy="1.2em">Down</tspan></text>
<rect rx="6.0" ry="6.0" x="672.528" y="1459.1506895789469" width="55.303999999999995" height="52.0" class="key"/>
<text x="700.1800000000001" y="1485.1506895789469" class="tap">🡅</text>
<g transform="rotate(5.0, 771.3561065484535, 1508.6682492181499)">
<rect rx="6.0" ry="6.0" x="743.7041065484534" y="1482.6682492181499" width="55.303999999999995" height="52.0" class="key"/>
<text x="771.3561065484535" y="1508.6682492181499" class="tap">
<tspan x="771.3561065484535" dy="-0.6em">Page</tspan><tspan x="771.3561065484535" dy="1.2em">Up</tspan></text>
</g>
<g transform="rotate(15.0, 843.6529540768639, 1576.143442645684)">
<rect rx="6.0" ry="6.0" x="816.0009540768639" y="1550.143442645684" width="55.303999999999995" height="52.0" class="key"/>
<text x="843.6529540768639" y="1576.143442645684" class="tap">Calc</text>
</g>
<g transform="rotate(-15.0, 74.1550459231361, 1630.239442645684)">
<rect rx="6.0" ry="6.0" x="46.5030459231361" y="1604.239442645684" width="55.303999999999995" height="52.0" class="key"/>
<text x="74.1550459231361" y="1630.239442645684" class="tap">Ctrl</text>
</g>
<g transform="rotate(-5.0, 136.81989345154656, 1564.44424921815)">
<rect rx="6.0" ry="6.0" x="109.16789345154656" y="1538.44424921815" width="55.303999999999995" height="52.0" class="key"/>
<text x="136.81989345154656" y="1564.44424921815" class="tap">Gui</text>
</g>
<rect rx="6.0" ry="6.0" x="175.472" y="1515.0946895789468" width="55.303999999999995" height="52.0" class="key"/>
<text x="203.124" y="1541.0946895789468" class="tap">Alt</text>
<rect rx="6.0" ry="6.0" x="234.71999999999997" y="1536.0946895789468" width="55.303999999999995" height="52.0" class="key"/>
<text x="262.37199999999996" y="1562.0946895789468" class="tap">↹</text>
<text x="262.37199999999996" y="1586.0946895789468" class="hold">Shift</text>
<rect rx="6.0" ry="6.0" x="294.024" y="1545.558689578947" width="55.303999999999995" height="52.0" class="key"/>
<text x="321.676" y="1571.558689578947" class="tap">
<tspan x="321.676" dy="-0.6em">Vol</tspan><tspan x="321.676" dy="1.2em">Down</tspan></text>
<rect rx="6.0" ry="6.0" x="553.976" y="1545.558689578947" width="55.303999999999995" height="52.0" class="key"/>
<text x="581.628" y="1571.558689578947" class="tap">Home</text>
<rect rx="6.0" ry="6.0" x="613.28" y="1536.0946895789468" width="55.303999999999995" height="52.0" class="key"/>
<text x="640.932" y="1562.0946895789468" class="tap">🡄</text>
<rect rx="6.0" ry="6.0" x="672.528" y="1515.0946895789468" width="55.303999999999995" height="52.0" class="key"/>
<text x="700.1800000000001" y="1541.0946895789468" class="tap">🡇</text>
<g transform="rotate(5.0, 766.4841065484535, 1564.44424921815)">
<rect rx="6.0" ry="6.0" x="738.8321065484535" y="1538.44424921815" width="55.303999999999995" height="52.0" class="key"/>
<text x="766.4841065484535" y="1564.44424921815" class="tap">🡆</text>
</g>
<g transform="rotate(15.0, 829.1489540768639, 1630.239442645684)">
<rect rx="6.0" ry="6.0" x="801.4969540768639" y="1604.239442645684" width="55.303999999999995" height="52.0" class="key"/>
<text x="829.1489540768639" y="1630.239442645684" class="tap">End</text>
</g>
<g transform="rotate(-15.0, 88.65904592313609, 1684.335442645684)">
<rect rx="6.0" ry="6.0" x="61.00704592313609" y="1658.335442645684" width="55.303999999999995" height="52.0" class="key"/>
</g>
<g transform="rotate(-5.0, 141.69189345154655, 1620.22024921815)">
<rect rx="6.0" ry="6.0" x="114.03989345154655" y="1594.22024921815" width="55.303999999999995" height="52.0" class="key"/>
<text x="141.69189345154655" y="1620.22024921815" class="tap">
<tspan x="141.69189345154655" dy="-0.6em">Win</tspan><tspan x="141.69189345154655" dy="1.2em">Prev</tspan></text>
</g>
<rect rx="6.0" ry="6.0" x="175.472" y="1571.0946895789468" width="55.303999999999995" height="52.0" class="key"/>
<text x="203.124" y="1597.0946895789468" class="tap">
<tspan x="203.124" dy="-0.6em">Win</tspan><tspan x="203.124" dy="1.2em">Next</tspan></text>
<rect rx="6.0" ry="6.0" x="234.71999999999997" y="1592.0946895789468" width="55.303999999999995" height="52.0" class="key"/>
<text x="262.37199999999996" y="1618.0946895789468" class="tap">Paste</text>
<rect rx="6.0" ry="6.0" x="294.024" y="1601.558689578947" width="55.303999999999995" height="52.0" class="key"/>
<text x="321.676" y="1627.558689578947" class="tap">⏯</text>
<rect rx="6.0" ry="6.0" x="553.976" y="1601.558689578947" width="55.303999999999995" height="52.0" class="key"/>
<rect rx="6.0" ry="6.0" x="613.28" y="1592.0946895789468" width="55.303999999999995" height="52.0" class="key"/>
<text x="640.932" y="1618.0946895789468" class="tap">⌦</text>
<rect rx="6.0" ry="6.0" x="672.528" y="1571.0946895789468" width="55.303999999999995" height="52.0" class="key"/>
<text x="700.1800000000001" y="1597.0946895789468" class="tap">⏮️</text>
<g transform="rotate(5.0, 761.6121065484535, 1620.22024921815)">
<rect rx="6.0" ry="6.0" x="733.9601065484535" y="1594.22024921815" width="55.303999999999995" height="52.0" class="key"/>
<text x="761.6121065484535" y="1620.22024921815" class="tap">⏭️</text>
</g>
<g transform="rotate(15.0, 814.6430459231361, 1684.3499365122098)">
<rect rx="6.0" ry="6.0" x="786.9910459231361" y="1658.3499365122098" width="55.303999999999995" height="52.0" class="key"/>
</g>
<g transform="rotate(-15.0, 317.69904592313605, 1712.5034426456841)">
<rect rx="6.0" ry="6.0" x="290.04704592313607" y="1686.5034426456841" width="55.303999999999995" height="52.0" class="key"/>
<text x="317.69904592313605" y="1712.5034426456841" class="tap">Reset</text>
</g>
<rect rx="6.0" ry="6.0" x="354.728" y="1679.5106895789468" width="55.303999999999995" height="52.0" class="held key"/>
<rect rx="6.0" ry="6.0" x="493.272" y="1679.5106895789468" width="55.303999999999995" height="52.0" class="trans key"/>
<text x="520.924" y="1705.5106895789468" class="trans tap">▽</text>
<g transform="rotate(15.0, 585.6030459231362, 1712.5179365122096)">
<rect rx="6.0" ry="6.0" x="557.9510459231361" y="1686.5179365122096" width="55.303999999999995" height="52.0" class="key"/>
<text x="585.6030459231362" y="1712.5179365122096" class="tap">Shift</text>
</g>
<rect rx="6.0" ry="6.0" x="307.676" y="1530.558689578947" width="28.0" height="26.0" class="combo"/>
<text x="321.676" y="1543.558689578947" class="combo tap">⏯</text>
</g>
<g class="layer-FUN">
<text x="30.0" y="1775.2383619736836" class="label">FUN:</text>
<g transform="rotate(-15.0, 59.651045923136095, 1922.2311150404207)">
<rect rx="6.0" ry="6.0" x="31.999045923136098" y="1896.2311150404207" width="55.303999999999995" height="52.0" class="key"/>
<text x="59.651045923136095" y="1922.2311150404207" class="tap">F1</text>
</g>
<g transform="rotate(-5.0, 131.94810654845344, 1854.7608023344806)">
<rect rx="6.0" ry="6.0" x="104.29610654845344" y="1828.7608023344806" width="55.303999999999995" height="52.0" class="key"/>
<text x="131.94810654845344" y="1854.7608023344806" class="tap">F2</text>
</g>
<rect rx="6.0" ry="6.0" x="175.472" y="1805.2383619736836" width="55.303999999999995" height="52.0" class="key"/>
<text x="203.124" y="1831.2383619736836" class="tap">F3</text>
<rect rx="6.0" ry="6.0" x="234.71999999999997" y="1826.1823619736836" width="55.303999999999995" height="52.0" class="key"/>
<text x="262.37199999999996" y="1852.1823619736836" class="tap">F4</text>
<rect rx="6.0" ry="6.0" x="294.024" y="1835.6463619736835" width="55.303999999999995" height="52.0" class="key"/>
<text x="321.676" y="1861.6463619736835" class="tap">F5</text>
<rect rx="6.0" ry="6.0" x="553.976" y="1835.6463619736835" width="55.303999999999995" height="52.0" class="key"/>
<text x="581.628" y="1861.6463619736835" class="tap">
<tspan x="581.628" dy="-0.6em">Out</tspan><tspan x="581.628" dy="1.2em">USB</tspan></text>
<rect rx="6.0" ry="6.0" x="613.28" y="1826.1823619736836" width="55.303999999999995" height="52.0" class="key"/>
<text x="640.932" y="1852.1823619736836" class="tap">
<tspan x="640.932" dy="-0.6em">Out</tspan><tspan x="640.932" dy="1.2em">BLE</tspan></text>
<rect rx="6.0" ry="6.0" x="672.528" y="1805.2383619736836" width="55.303999999999995" height="52.0" class="key"/>
<text x="700.1800000000001" y="1831.2383619736836" class="tap">DEF</text>
<g transform="rotate(5.0, 771.3561065484535, 1854.7559216128866)">
<rect rx="6.0" ry="6.0" x="743.7041065484534" y="1828.7559216128866" width="55.303999999999995" height="52.0" class="key"/>
<text x="771.3561065484535" y="1854.7559216128866" class="tap">APT</text>
</g>
<g transform="rotate(15.0, 843.6529540768639, 1922.2311150404207)">
<rect rx="6.0" ry="6.0" x="816.0009540768639" y="1896.2311150404207" width="55.303999999999995" height="52.0" class="key"/>
<text x="843.6529540768639" y="1922.2311150404207" class="tap">GME</text>
</g>
<g transform="rotate(-15.0, 74.1550459231361, 1976.3271150404207)">
<rect rx="6.0" ry="6.0" x="46.5030459231361" y="1950.3271150404207" width="55.303999999999995" height="52.0" class="key"/>
<text x="74.1550459231361" y="1976.3271150404207" class="tap">F6</text>
</g>
<g transform="rotate(-5.0, 136.81989345154656, 1910.5319216128867)">
<rect rx="6.0" ry="6.0" x="109.16789345154656" y="1884.5319216128867" width="55.303999999999995" height="52.0" class="key"/>
<text x="136.81989345154656" y="1910.5319216128867" class="tap">F7</text>
</g>
<rect rx="6.0" ry="6.0" x="175.472" y="1861.1823619736836" width="55.303999999999995" height="52.0" class="key"/>
<text x="203.124" y="1887.1823619736836" class="tap">F8</text>
<rect rx="6.0" ry="6.0" x="234.71999999999997" y="1882.1823619736836" width="55.303999999999995" height="52.0" class="key"/>
<text x="262.37199999999996" y="1908.1823619736836" class="tap">F9</text>
<rect rx="6.0" ry="6.0" x="294.024" y="1891.6463619736837" width="55.303999999999995" height="52.0" class="key"/>
<text x="321.676" y="1917.6463619736837" class="tap">F10</text>
<rect rx="6.0" ry="6.0" x="553.976" y="1891.6463619736837" width="55.303999999999995" height="52.0" class="key"/>
<text x="581.628" y="1917.6463619736837" class="tap">
<tspan x="581.628" dy="-0.6em">BT</tspan><tspan x="581.628" dy="1.2em">1</tspan></text>
<rect rx="6.0" ry="6.0" x="613.28" y="1882.1823619736836" width="55.303999999999995" height="52.0" class="key"/>
<text x="640.932" y="1908.1823619736836" class="tap">
<tspan x="640.932" dy="-0.6em">BT</tspan><tspan x="640.932" dy="1.2em">2</tspan></text>
<rect rx="6.0" ry="6.0" x="672.528" y="1861.1823619736836" width="55.303999999999995" height="52.0" class="key"/>
<text x="700.1800000000001" y="1887.1823619736836" class="tap">
<tspan x="700.1800000000001" dy="-0.6em">BT</tspan><tspan x="700.1800000000001" dy="1.2em">3</tspan></text>
<g transform="rotate(5.0, 766.4841065484535, 1910.5319216128867)">
<rect rx="6.0" ry="6.0" x="738.8321065484535" y="1884.5319216128867" width="55.303999999999995" height="52.0" class="key"/>
<text x="766.4841065484535" y="1910.5319216128867" class="tap">
<tspan x="766.4841065484535" dy="-0.6em">BT</tspan><tspan x="766.4841065484535" dy="1.2em">4</tspan></text>
</g>
<g transform="rotate(15.0, 829.1489540768639, 1976.3271150404207)">
<rect rx="6.0" ry="6.0" x="801.4969540768639" y="1950.3271150404207" width="55.303999999999995" height="52.0" class="key"/>
<text x="829.1489540768639" y="1976.3271150404207" class="tap">
<tspan x="829.1489540768639" dy="-0.6em">BT</tspan><tspan x="829.1489540768639" dy="1.2em">5</tspan></text>
</g>
<g transform="rotate(-15.0, 88.65904592313609, 2030.4231150404207)">
<rect rx="6.0" ry="6.0" x="61.00704592313609" y="2004.4231150404207" width="55.303999999999995" height="52.0" class="key"/>
</g>
<g transform="rotate(-5.0, 141.69189345154655, 1966.3079216128867)">
<rect rx="6.0" ry="6.0" x="114.03989345154655" y="1940.3079216128867" width="55.303999999999995" height="52.0" class="key"/>
<text x="141.69189345154655" y="1966.3079216128867" class="tap">
<tspan x="141.69189345154655" dy="-0.6em">Desk</tspan><tspan x="141.69189345154655" dy="1.2em">Left</tspan></text>
</g>
<rect rx="6.0" ry="6.0" x="175.472" y="1917.1823619736836" width="55.303999999999995" height="52.0" class="key"/>
<text x="203.124" y="1943.1823619736836" class="tap">
<tspan x="203.124" dy="-0.6em">Desk</tspan><tspan x="203.124" dy="1.2em">Right</tspan></text>
<rect rx="6.0" ry="6.0" x="234.71999999999997" y="1938.1823619736836" width="55.303999999999995" height="52.0" class="key"/>
<text x="262.37199999999996" y="1964.1823619736836" class="tap">F11</text>
<rect rx="6.0" ry="6.0" x="294.024" y="1947.6463619736837" width="55.303999999999995" height="52.0" class="key"/>
<text x="321.676" y="1973.6463619736837" class="tap">F12</text>
<rect rx="6.0" ry="6.0" x="553.976" y="1947.6463619736837" width="55.303999999999995" height="52.0" class="key"/>
<rect rx="6.0" ry="6.0" x="613.28" y="1938.1823619736836" width="55.303999999999995" height="52.0" class="key"/>
<text x="640.932" y="1964.1823619736836" class="tap">
<tspan x="640.932" dy="-0.6em">Caps</tspan><tspan x="640.932" dy="1.2em">Lock</tspan></text>
<rect rx="6.0" ry="6.0" x="672.528" y="1917.1823619736836" width="55.303999999999995" height="52.0" class="key"/>
<text x="700.1800000000001" y="1943.1823619736836" class="tap">
<tspan x="700.1800000000001" dy="-0.6em">Print</tspan><tspan x="700.1800000000001" dy="1.2em">Scrn</tspan></text>
<g transform="rotate(5.0, 761.6121065484535, 1966.3079216128867)">
<rect rx="6.0" ry="6.0" x="733.9601065484535" y="1940.3079216128867" width="55.303999999999995" height="52.0" class="key"/>
<text x="761.6121065484535" y="1966.3079216128867" class="tap">
<tspan x="761.6121065484535" dy="-0.6em">Pause</tspan><tspan x="761.6121065484535" dy="1.2em">Break</tspan></text>
</g>
<g transform="rotate(15.0, 814.6430459231361, 2030.4376089069465)">
<rect rx="6.0" ry="6.0" x="786.9910459231361" y="2004.4376089069465" width="55.303999999999995" height="52.0" class="key"/>
</g>
<g transform="rotate(-15.0, 317.69904592313605, 2058.591115040421)">
<rect rx="6.0" ry="6.0" x="290.04704592313607" y="2032.5911150404208" width="55.303999999999995" height="52.0" class="key"/>
<text x="317.69904592313605" y="2058.591115040421" class="tap">Boot</text>
</g>
<rect rx="6.0" ry="6.0" x="354.728" y="2025.5983619736835" width="55.303999999999995" height="52.0" class="held key"/>
<rect rx="6.0" ry="6.0" x="493.272" y="2025.5983619736835" width="55.303999999999995" height="52.0" class="held key"/>
<g transform="rotate(15.0, 585.6030459231362, 2058.6056089069466)">
<rect rx="6.0" ry="6.0" x="557.9510459231361" y="2032.6056089069466" width="55.303999999999995" height="52.0" class="key"/>
<text x="585.6030459231362" y="2058.6056089069466" class="tap">Boot</text>
</g>
<path d="M172.4079467257733,1995.3079216128867 h-24.716053274226738 a6.0,6.0 0 0 1 -6.0,-6.0 v-4.333333333333332" class="combo"/>
<path d="M172.4079467257733,1995.3079216128867 h24.71605327422671 a6.0,6.0 0 0 0 6.0,-6.0 v-27.458892972536507" class="combo"/>
<rect rx="6.0" ry="6.0" x="158.4079467257733" y="1982.3079216128867" width="28.0" height="26.0" class="combo"/>
<text x="172.4079467257733" y="1995.3079216128867" class="combo tap">F12</text>
<path d="M730.8960532742268,1995.3079216128867 h-24.716053274226738 a6.0,6.0 0 0 1 -6.0,-6.0 v-27.458892972536507" class="combo"/>
<path d="M730.8960532742268,1995.3079216128867 h24.716053274226738 a6.0,6.0 0 0 0 6.0,-6.0 v-4.333333333333332" class="combo"/>
<rect rx="6.0" ry="6.0" x="716.8960532742268" y="1982.3079216128867" width="28.0" height="26.0" class="combo"/>
<text x="730.8960532742268" y="1995.3079216128867" class="combo tap">
<tspan x="730.8960532742268" dy="-0.6em">BT</tspan><tspan x="730.8960532742268" dy="1.2em">CLR</tspan></text>
</g>
</svg>
