<svg width="909.5415199408579" height="2149.3260343684206" viewBox="0 0 909.5415199408579 2149.3260343684206" class="keymap" xmlns="http://www.w3.org/2000/svg" xmlns:xlink="http://www.w3.org/1999/xlink">
<style>/* inherit to force styles through use tags*/
svg path {
    fill: inherit;
}
/* font and background color specifications */
svg.keymap {
    font-family: SFMono-Regular,Consolas,Liberation Mono,Menlo,monospace;
    font-size: 14px;
    font-kerning: normal;
    text-rendering: optimizeLegibility;
    fill: #24292e;
}

/* default key styling */
rect.key {
    fill: #f6f8fa;
    stroke: #c9cccf;
    stroke-width: 1;
}

/* default key side styling, only used is draw_key_sides is set */
rect.side {
    filter: brightness(90%);
}

/* color accent for combo boxes */
rect.combo {
    fill: #cdf;
}

/* color accent for held keys */
rect.held, rect.combo.held {
    fill: #fdd;
}

/* color accent for ghost (optional) keys */
rect.ghost, rect.combo.ghost {
    stroke-dasharray: 4, 4;
    stroke-width: 2;
}

text {
    text-anchor: middle;
    dominant-baseline: middle;
}

/* styling for layer labels */
text.label {
    font-weight: bold;
    text-anchor: start;
    stroke: white;
    stroke-width: 2;
    paint-order: stroke;
}

/* styling for combo tap, and key hold/shifted label text */
text.combo, text.hold, text.shifted {
    font-size: 11px;
}

text.hold {
    text-anchor: middle;
    dominant-baseline: auto;
}

text.shifted {
    text-anchor: middle;
    dominant-baseline: hanging;
}

/* styling for hold/shifted label text in combo box */
text.combo.hold, text.combo.shifted {
    font-size: 8px;
}

/* lighter symbol for transparent keys */
text.trans {
    fill: #7b7e81;
}

/* styling for combo dendrons */
path.combo {
    stroke-width: 1;
    stroke: gray;
    fill: none;
}

/* Start Tabler Icons Cleanup */
/* cannot use height/width with glyphs */
.icon-tabler > path {
    fill: inherit;
    stroke: inherit;
}
/* hide tabler's default box */
.icon-tabler > path[stroke="none"][fill="none"] {
    visibility: collapse;
}
/* End Tabler Icons Cleanup */
</style>
<g class="layer-DEF">
<text x="30.0" y="28.0" class="label">DEF:</text>
<g transform="rotate(-15.0, 60, 183)" class="key keypos-0">
<rect rx="6" ry="6" x="32" y="157" width="55" height="52" class="key"/>
<text x="60" y="183" class="key tap">Q</text>
</g>
<g transform="rotate(-5.0, 132, 116)" class="key keypos-1">
<rect rx="6" ry="6" x="104" y="90" width="55" height="52" class="key"/>
<text x="132" y="116" class="key tap">W</text>
</g>
<g class="key keypos-2">
<rect rx="6" ry="6" x="175" y="66" width="55" height="52" class="key"/>
<text x="203" y="92" class="key tap">F</text>
</g>
<g class="key keypos-3">
<rect rx="6" ry="6" x="235" y="87" width="55" height="52" class="key"/>
<text x="262" y="113" class="key tap">P</text>
</g>
<g class="key keypos-4">
<rect rx="6" ry="6" x="294" y="97" width="55" height="52" class="key"/>
<text x="322" y="123" class="key tap">B</text>
</g>
<g class="key keypos-5">
<rect rx="6" ry="6" x="554" y="97" width="55" height="52" class="key"/>
<text x="582" y="123" class="key tap">K</text>
</g>
<g class="key keypos-6">
<rect rx="6" ry="6" x="613" y="87" width="55" height="52" class="key"/>
<text x="641" y="113" class="key tap">L</text>
</g>
<g class="key keypos-7">
<rect rx="6" ry="6" x="673" y="66" width="55" height="52" class="key"/>
<text x="700" y="92" class="key tap">U</text>
</g>
<g transform="rotate(5.0, 771, 116)" class="key keypos-8">
<rect rx="6" ry="6" x="744" y="90" width="55" height="52" class="key"/>
<text x="771" y="116" class="key tap">Y</text>
</g>
<g transform="rotate(15.0, 844, 183)" class="key keypos-9">
<rect rx="6" ry="6" x="816" y="157" width="55" height="52" class="key"/>
<text x="844" y="183" class="key tap">&#x27;</text>
</g>
<g transform="rotate(-15.0, 74, 237)" class="key keypos-10">
<rect rx="6" ry="6" x="47" y="211" width="55" height="52" class="key"/>
<text x="74" y="237" class="key tap">A</text>
<text x="74" y="261" class="key hold">Ctrl</text>
</g>
<g transform="rotate(-5.0, 137, 172)" class="key keypos-11">
<rect rx="6" ry="6" x="109" y="146" width="55" height="52" class="key"/>
<text x="137" y="172" class="key tap">R</text>
<text x="137" y="196" class="key hold">Gui</text>
</g>
<g class="key keypos-12">
<rect rx="6" ry="6" x="175" y="122" width="55" height="52" class="key"/>
<text x="203" y="148" class="key tap">S</text>
<text x="203" y="172" class="key hold">Alt</text>
</g>
<g class="key keypos-13">
<rect rx="6" ry="6" x="235" y="143" width="55" height="52" class="key"/>
<text x="262" y="169" class="key tap">T</text>
<text x="262" y="193" class="key hold">Shift</text>
</g>
<g class="key keypos-14">
<rect rx="6" ry="6" x="294" y="153" width="55" height="52" class="key"/>
<text x="322" y="179" class="key tap">G</text>
</g>
<g class="key keypos-15">
<rect rx="6" ry="6" x="554" y="153" width="55" height="52" class="key"/>
<text x="582" y="179" class="key tap">M</text>
</g>
<g class="key keypos-16">
<rect rx="6" ry="6" x="613" y="143" width="55" height="52" class="key"/>
<text x="641" y="169" class="key tap">N</text>
<text x="641" y="193" class="key hold">Shift</text>
</g>
<g class="key keypos-17">
<rect rx="6" ry="6" x="673" y="122" width="55" height="52" class="key"/>
<text x="700" y="148" class="key tap">E</text>
<text x="700" y="172" class="key hold">Alt</text>
</g>
<g transform="rotate(5.0, 766, 172)" class="key keypos-18">
<rect rx="6" ry="6" x="739" y="146" width="55" height="52" class="key"/>
<text x="766" y="172" class="key tap">I</text>
<text x="766" y="196" class="key hold">Gui</text>
</g>
<g transform="rotate(15.0, 829, 237)" class="key keypos-19">
<rect rx="6" ry="6" x="801" y="211" width="55" height="52" class="key"/>
<text x="829" y="237" class="key tap">O</text>
<text x="829" y="261" class="key hold">Ctrl</text>
</g>
<g transform="rotate(-15.0, 89, 292)" class="key keypos-20">
<rect rx="6" ry="6" x="61" y="266" width="55" height="52" class="key"/>
<text x="89" y="292" class="key tap">Z</text>
</g>
<g transform="rotate(-5.0, 142, 227)" class="key keypos-21">
<rect rx="6" ry="6" x="114" y="201" width="55" height="52" class="key"/>
<text x="142" y="227" class="key tap">X</text>
</g>
<g class="key keypos-22">
<rect rx="6" ry="6" x="175" y="178" width="55" height="52" class="key"/>
<text x="203" y="204" class="key tap">C</text>
</g>
<g class="key keypos-23">
<rect rx="6" ry="6" x="235" y="199" width="55" height="52" class="key"/>
<text x="262" y="225" class="key tap">D</text>
</g>
<g class="key keypos-24">
<rect rx="6" ry="6" x="294" y="209" width="55" height="52" class="key"/>
<text x="322" y="235" class="key tap">V</text>
</g>
<g class="key keypos-25">
<rect rx="6" ry="6" x="554" y="209" width="55" height="52" class="key"/>
<text x="582" y="235" class="key tap">J</text>
</g>
<g class="key keypos-26">
<rect rx="6" ry="6" x="613" y="199" width="55" height="52" class="key"/>
<text x="641" y="225" class="key tap">H</text>
</g>
<g class="key keypos-27">
<rect rx="6" ry="6" x="673" y="178" width="55" height="52" class="key"/>
<text x="700" y="204" class="key tap">,</text>
</g>
<g transform="rotate(5.0, 762, 227)" class="key keypos-28">
<rect rx="6" ry="6" x="734" y="201" width="55" height="52" class="key"/>
<text x="762" y="227" class="key tap">.</text>
</g>
<g transform="rotate(15.0, 815, 292)" class="key keypos-29">
<rect rx="6" ry="6" x="787" y="266" width="55" height="52" class="key"/>
<text x="815" y="292" class="key tap">/</text>
</g>
<g transform="rotate(-15.0, 318, 320)" class="key keypos-30">
<rect rx="6" ry="6" x="290" y="294" width="55" height="52" class="key"/>
<text x="318" y="320" class="key tap">Esc</text>
<text x="318" y="344" class="key hold">Ctrl</text>
</g>
<g class="key keypos-31">
<rect rx="6" ry="6" x="355" y="287" width="55" height="52" class="key"/>
<text x="382" y="313" class="key tap">⌫</text>
<text x="382" y="337" class="key hold">NAV</text>
</g>
<g class="key keypos-32">
<rect rx="6" ry="6" x="493" y="287" width="55" height="52" class="key"/>
<text x="521" y="313" class="key tap">␣</text>
<text x="521" y="337" class="key hold">SYM</text>
</g>
<g transform="rotate(15.0, 586, 320)" class="key keypos-33">
<rect rx="6" ry="6" x="558" y="294" width="55" height="52" class="key"/>
<text x="586" y="320" class="key tap">⮠</text>
<text x="586" y="344" class="key hold">Shift</text>
</g>
<g class="combo combopos-0">
<rect rx="6" ry="6" x="219" y="90" width="28" height="26" class="combo"/>
<text x="233" y="103" class="combo tap">J</text>
</g>
<g class="combo combopos-1">
<rect rx="6" ry="6" x="657" y="90" width="28" height="26" class="combo"/>
<text x="671" y="103" class="combo tap">;</text>
</g>
<g class="combo combopos-2">
<rect rx="6" ry="6" x="722" y="91" width="28" height="26" class="combo"/>
<text x="736" y="104" class="combo tap">`</text>
</g>
<g class="combo combopos-3">
<rect rx="6" ry="6" x="219" y="146" width="28" height="26" class="combo"/>
<text x="233" y="159" class="combo tap">(</text>
</g>
<g class="combo combopos-4">
<rect rx="6" ry="6" x="657" y="146" width="28" height="26" class="combo"/>
<text x="671" y="159" class="combo tap">)</text>
</g>
<g class="combo combopos-5">
<rect rx="6" ry="6" x="156" y="147" width="28" height="26" class="combo"/>
<text x="170" y="160" class="combo tap">[</text>
</g>
<g class="combo combopos-6">
<rect rx="6" ry="6" x="719" y="147" width="28" height="26" class="combo"/>
<text x="733" y="160" class="combo tap">]</text>
</g>
<g class="combo combopos-7">
<path d="M200,132 h-57 a6.0,6.0 0 0 0 -6.0,6.0 v15" class="combo"/>
<path d="M200,132 h57 a6.0,6.0 0 0 1 6.0,6.0 v13" class="combo"/>
<rect rx="6" ry="6" x="186" y="119" width="28" height="26" class="combo"/>
<text x="200" y="132" class="combo tap">↹</text>
</g>
<g class="combo combopos-8">
<path d="M704,132 h-57 a6.0,6.0 0 0 0 -6.0,6.0 v13" class="combo"/>
<path d="M704,132 h57 a6.0,6.0 0 0 1 6.0,6.0 v15" class="combo"/>
<rect rx="6" ry="6" x="690" y="119" width="28" height="26" class="combo"/>
<text x="704" y="132" class="combo tap">⌫</text>
</g>
<g class="combo combopos-9">
<path d="M452,140 h-183 a6.0,6.0 0 0 0 -6.0,6.0 v4" class="combo"/>
<path d="M452,140 h183 a6.0,6.0 0 0 1 6.0,6.0 v4" class="combo"/>
<rect rx="6" ry="6" x="438" y="127" width="28" height="26" class="combo"/>
<text x="452" y="140" class="combo tap">
<tspan x="451.652" dy="-0.6em">Caps</tspan><tspan x="451.652" dy="1.2em">Wrd</tspan>
</text>
</g>
<g class="combo combopos-10">
<rect rx="6" ry="6" x="158" y="203" width="28" height="26" class="combo"/>
<text x="172" y="216" class="combo tap">Z</text>
</g>
<g class="combo combopos-11">
<rect rx="6" ry="6" x="219" y="202" width="28" height="26" class="combo"/>
<text x="233" y="215" class="combo tap">V</text>
</g>
<g class="combo combopos-12">
<rect rx="6" ry="6" x="657" y="202" width="28" height="26" class="combo"/>
<text x="671" y="215" class="combo tap">\</text>
</g>
<g class="combo combopos-13">
<rect rx="6" ry="6" x="717" y="203" width="28" height="26" class="combo"/>
<text x="731" y="216" class="combo tap">/</text>
</g>
</g>
<g class="layer-BRD">
<text x="30.0" y="382.4876723947367" class="label">BRD:</text>
<g transform="rotate(-15.0, 60, 538)" class="key keypos-0">
<rect rx="6" ry="6" x="32" y="512" width="55" height="52" class="key"/>
<text x="60" y="538" class="key tap">X</text>
</g>
<g transform="rotate(-5.0, 132, 470)" class="key keypos-1">
<rect rx="6" ry="6" x="104" y="444" width="55" height="52" class="key"/>
<text x="132" y="470" class="key tap">C</text>
</g>
<g class="key keypos-2">
<rect rx="6" ry="6" x="175" y="421" width="55" height="52" class="key"/>
<text x="203" y="447" class="key tap">L</text>
</g>
<g class="key keypos-3">
<rect rx="6" ry="6" x="235" y="442" width="55" height="52" class="key"/>
<text x="262" y="468" class="key tap">F</text>
</g>
<g class="key keypos-4">
<rect rx="6" ry="6" x="294" y="451" width="55" height="52" class="key"/>
<text x="322" y="477" class="key tap">B</text>
</g>
<g class="key keypos-5">
<rect rx="6" ry="6" x="554" y="451" width="55" height="52" class="key"/>
<text x="582" y="477" class="key tap">J</text>
</g>
<g class="key keypos-6">
<rect rx="6" ry="6" x="613" y="442" width="55" height="52" class="key"/>
<text x="641" y="468" class="key tap">Y</text>
</g>
<g class="key keypos-7">
<rect rx="6" ry="6" x="673" y="421" width="55" height="52" class="key"/>
<text x="700" y="447" class="key tap">O</text>
</g>
<g transform="rotate(5.0, 771, 470)" class="key keypos-8">
<rect rx="6" ry="6" x="744" y="444" width="55" height="52" class="key"/>
<text x="771" y="470" class="key tap">U</text>
</g>
<g transform="rotate(15.0, 844, 538)" class="key keypos-9">
<rect rx="6" ry="6" x="816" y="512" width="55" height="52" class="key"/>
<text x="844" y="538" class="key tap">&#x27;</text>
</g>
<g transform="rotate(-15.0, 74, 592)" class="key keypos-10">
<rect rx="6" ry="6" x="47" y="566" width="55" height="52" class="key"/>
<text x="74" y="592" class="key tap">R</text>
<text x="74" y="616" class="key hold">Ctrl</text>
</g>
<g transform="rotate(-5.0, 137, 526)" class="key keypos-11">
<rect rx="6" ry="6" x="109" y="500" width="55" height="52" class="key"/>
<text x="137" y="526" class="key tap">S</text>
<text x="137" y="550" class="key hold">Gui</text>
</g>
<g class="key keypos-12">
<rect rx="6" ry="6" x="175" y="477" width="55" height="52" class="key"/>
<text x="203" y="503" class="key tap">N</text>
<text x="203" y="527" class="key hold">Alt</text>
</g>
<g class="key keypos-13">
<rect rx="6" ry="6" x="235" y="498" width="55" height="52" class="key"/>
<text x="262" y="524" class="key tap">T</text>
<text x="262" y="548" class="key hold">Shift</text>
</g>
<g class="key keypos-14">
<rect rx="6" ry="6" x="294" y="507" width="55" height="52" class="key"/>
<text x="322" y="533" class="key tap">P</text>
</g>
<g class="key keypos-15">
<rect rx="6" ry="6" x="554" y="507" width="55" height="52" class="key"/>
<text x="582" y="533" class="key tap">K</text>
</g>
<g class="key keypos-16">
<rect rx="6" ry="6" x="613" y="498" width="55" height="52" class="key"/>
<text x="641" y="524" class="key tap">H</text>
<text x="641" y="548" class="key hold">Shift</text>
</g>
<g class="key keypos-17">
<rect rx="6" ry="6" x="673" y="477" width="55" height="52" class="key"/>
<text x="700" y="503" class="key tap">E</text>
<text x="700" y="527" class="key hold">Alt</text>
</g>
<g transform="rotate(5.0, 766, 526)" class="key keypos-18">
<rect rx="6" ry="6" x="739" y="500" width="55" height="52" class="key"/>
<text x="766" y="526" class="key tap">I</text>
<text x="766" y="550" class="key hold">Gui</text>
</g>
<g transform="rotate(15.0, 829, 592)" class="key keypos-19">
<rect rx="6" ry="6" x="801" y="566" width="55" height="52" class="key"/>
<text x="829" y="592" class="key tap">A</text>
<text x="829" y="616" class="key hold">Ctrl</text>
</g>
<g transform="rotate(-15.0, 89, 646)" class="key keypos-20">
<rect rx="6" ry="6" x="61" y="620" width="55" height="52" class="key"/>
</g>
<g transform="rotate(-5.0, 142, 582)" class="key keypos-21">
<rect rx="6" ry="6" x="114" y="556" width="55" height="52" class="key"/>
<text x="142" y="582" class="key tap">W</text>
</g>
<g class="key keypos-22">
<rect rx="6" ry="6" x="175" y="533" width="55" height="52" class="key"/>
<text x="203" y="559" class="key tap">M</text>
</g>
<g class="key keypos-23">
<rect rx="6" ry="6" x="235" y="554" width="55" height="52" class="key"/>
<text x="262" y="580" class="key tap">G</text>
</g>
<g class="key keypos-24">
<rect rx="6" ry="6" x="294" y="563" width="55" height="52" class="key"/>
</g>
<g class="key keypos-25">
<rect rx="6" ry="6" x="554" y="563" width="55" height="52" class="key"/>
</g>
<g class="key keypos-26">
<rect rx="6" ry="6" x="613" y="554" width="55" height="52" class="key"/>
<text x="641" y="580" class="key tap">D</text>
</g>
<g class="key keypos-27">
<rect rx="6" ry="6" x="673" y="533" width="55" height="52" class="key"/>
<text x="700" y="559" class="key tap">,</text>
</g>
<g transform="rotate(5.0, 762, 582)" class="key keypos-28">
<rect rx="6" ry="6" x="734" y="556" width="55" height="52" class="key"/>
<text x="762" y="582" class="key tap">.</text>
</g>
<g transform="rotate(15.0, 815, 646)" class="key keypos-29">
<rect rx="6" ry="6" x="787" y="620" width="55" height="52" class="key"/>
</g>
<g transform="rotate(-15.0, 318, 674)" class="key keypos-30">
<rect rx="6" ry="6" x="290" y="648" width="55" height="52" class="key"/>
<text x="318" y="674" class="key tap">Esc</text>
<text x="318" y="698" class="key hold">Ctrl</text>
</g>
<g class="key keypos-31">
<rect rx="6" ry="6" x="355" y="641" width="55" height="52" class="key"/>
<text x="382" y="667" class="key tap">⌫</text>
<text x="382" y="691" class="key hold">NAV</text>
</g>
<g class="key keypos-32">
<rect rx="6" ry="6" x="493" y="641" width="55" height="52" class="key"/>
<text x="521" y="667" class="key tap">␣</text>
<text x="521" y="691" class="key hold">SYM</text>
</g>
<g transform="rotate(15.0, 586, 674)" class="key keypos-33">
<rect rx="6" ry="6" x="558" y="648" width="55" height="52" class="key"/>
<text x="586" y="674" class="key tap">⮠</text>
<text x="586" y="698" class="key hold">Shift</text>
</g>
<g class="combo combopos-0">
<rect rx="6" ry="6" x="219" y="444" width="28" height="26" class="combo"/>
<text x="233" y="457" class="combo tap">Q</text>
</g>
<g class="combo combopos-1">
<rect rx="6" ry="6" x="154" y="446" width="28" height="26" class="combo"/>
<text x="168" y="459" class="combo tap">V</text>
</g>
<g class="combo combopos-2">
<rect rx="6" ry="6" x="657" y="444" width="28" height="26" class="combo"/>
<text x="671" y="457" class="combo tap">;</text>
</g>
<g class="combo combopos-3">
<rect rx="6" ry="6" x="722" y="446" width="28" height="26" class="combo"/>
<text x="736" y="459" class="combo tap">`</text>
</g>
<g class="combo combopos-4">
<rect rx="6" ry="6" x="219" y="500" width="28" height="26" class="combo"/>
<text x="233" y="513" class="combo tap">(</text>
</g>
<g class="combo combopos-5">
<rect rx="6" ry="6" x="657" y="500" width="28" height="26" class="combo"/>
<text x="671" y="513" class="combo tap">)</text>
</g>
<g class="combo combopos-6">
<rect rx="6" ry="6" x="156" y="502" width="28" height="26" class="combo"/>
<text x="170" y="515" class="combo tap">[</text>
</g>
<g class="combo combopos-7">
<rect rx="6" ry="6" x="719" y="502" width="28" height="26" class="combo"/>
<text x="733" y="515" class="combo tap">]</text>
</g>
<g class="combo combopos-8">
<path d="M200,486 h-57 a6.0,6.0 0 0 0 -6.0,6.0 v15" class="combo"/>
<path d="M200,486 h57 a6.0,6.0 0 0 1 6.0,6.0 v13" class="combo"/>
<rect rx="6" ry="6" x="186" y="473" width="28" height="26" class="combo"/>
<text x="200" y="486" class="combo tap">↹</text>
</g>
<g class="combo combopos-9">
<path d="M704,486 h-57 a6.0,6.0 0 0 0 -6.0,6.0 v13" class="combo"/>
<path d="M704,486 h57 a6.0,6.0 0 0 1 6.0,6.0 v15" class="combo"/>
<rect rx="6" ry="6" x="690" y="473" width="28" height="26" class="combo"/>
<text x="704" y="486" class="combo tap">⌫</text>
</g>
<g class="combo combopos-10">
<path d="M452,495 h-183 a6.0,6.0 0 0 0 -6.0,6.0 v4" class="combo"/>
<path d="M452,495 h183 a6.0,6.0 0 0 1 6.0,6.0 v4" class="combo"/>
<rect rx="6" ry="6" x="438" y="482" width="28" height="26" class="combo"/>
<text x="452" y="495" class="combo tap">
<tspan x="451.652" dy="-0.6em">Caps</tspan><tspan x="451.652" dy="1.2em">Wrd</tspan>
</text>
</g>
<g class="combo combopos-11">
<rect rx="6" ry="6" x="158" y="557" width="28" height="26" class="combo"/>
<text x="172" y="570" class="combo tap">Z</text>
</g>
<g class="combo combopos-12">
<rect rx="6" ry="6" x="657" y="556" width="28" height="26" class="combo"/>
<text x="671" y="569" class="combo tap">\</text>
</g>
<g class="combo combopos-13">
<rect rx="6" ry="6" x="717" y="557" width="28" height="26" class="combo"/>
<text x="731" y="570" class="combo tap">/</text>
</g>
</g>
<g class="layer-GME">
<text x="30.0" y="736.9753447894734" class="label">GME:</text>
<g transform="rotate(-15.0, 60, 884)" class="key keypos-0">
<rect rx="6" ry="6" x="32" y="858" width="55" height="52" class="key"/>
<text x="60" y="884" class="key tap">↹</text>
</g>
<g transform="rotate(-5.0, 132, 816)" class="key keypos-1">
<rect rx="6" ry="6" x="104" y="790" width="55" height="52" class="key"/>
<text x="132" y="816" class="key tap">Q</text>
</g>
<g class="key keypos-2">
<rect rx="6" ry="6" x="175" y="767" width="55" height="52" class="key"/>
<text x="203" y="793" class="key tap">W</text>
</g>
<g class="key keypos-3">
<rect rx="6" ry="6" x="235" y="788" width="55" height="52" class="key"/>
<text x="262" y="814" class="key tap">E</text>
</g>
<g class="key keypos-4">
<rect rx="6" ry="6" x="294" y="797" width="55" height="52" class="key"/>
<text x="322" y="823" class="key tap">R</text>
</g>
<g class="key keypos-5">
<rect rx="6" ry="6" x="554" y="797" width="55" height="52" class="key"/>
<text x="582" y="823" class="key tap">Y</text>
</g>
<g class="key keypos-6">
<rect rx="6" ry="6" x="613" y="788" width="55" height="52" class="key"/>
<text x="641" y="814" class="key tap">U</text>
</g>
<g class="key keypos-7">
<rect rx="6" ry="6" x="673" y="767" width="55" height="52" class="key"/>
<text x="700" y="793" class="key tap">I</text>
</g>
<g transform="rotate(5.0, 771, 816)" class="key keypos-8">
<rect rx="6" ry="6" x="744" y="790" width="55" height="52" class="key"/>
<text x="771" y="816" class="key tap">O</text>
</g>
<g transform="rotate(15.0, 844, 884)" class="key keypos-9">
<rect rx="6" ry="6" x="816" y="858" width="55" height="52" class="key"/>
<text x="844" y="884" class="key tap">P</text>
</g>
<g transform="rotate(-15.0, 74, 938)" class="key keypos-10">
<rect rx="6" ry="6" x="47" y="912" width="55" height="52" class="key"/>
<text x="74" y="938" class="key tap">Esc</text>
</g>
<g transform="rotate(-5.0, 137, 872)" class="key keypos-11">
<rect rx="6" ry="6" x="109" y="846" width="55" height="52" class="key"/>
<text x="137" y="872" class="key tap">A</text>
</g>
<g class="key keypos-12">
<rect rx="6" ry="6" x="175" y="823" width="55" height="52" class="key"/>
<text x="203" y="849" class="key tap">S</text>
</g>
<g class="key keypos-13">
<rect rx="6" ry="6" x="235" y="844" width="55" height="52" class="key"/>
<text x="262" y="870" class="key tap">D</text>
</g>
<g class="key keypos-14">
<rect rx="6" ry="6" x="294" y="853" width="55" height="52" class="key"/>
<text x="322" y="879" class="key tap">F</text>
</g>
<g class="key keypos-15">
<rect rx="6" ry="6" x="554" y="853" width="55" height="52" class="key"/>
<text x="582" y="879" class="key tap">H</text>
</g>
<g class="key keypos-16">
<rect rx="6" ry="6" x="613" y="844" width="55" height="52" class="key"/>
<text x="641" y="870" class="key tap">J</text>
</g>
<g class="key keypos-17">
<rect rx="6" ry="6" x="673" y="823" width="55" height="52" class="key"/>
<text x="700" y="849" class="key tap">K</text>
</g>
<g transform="rotate(5.0, 766, 872)" class="key keypos-18">
<rect rx="6" ry="6" x="739" y="846" width="55" height="52" class="key"/>
<text x="766" y="872" class="key tap">L</text>
</g>
<g transform="rotate(15.0, 829, 938)" class="key keypos-19">
<rect rx="6" ry="6" x="801" y="912" width="55" height="52" class="key"/>
<text x="829" y="938" class="key tap">GME</text>
</g>
<g transform="rotate(-15.0, 89, 992)" class="key keypos-20">
<rect rx="6" ry="6" x="61" y="966" width="55" height="52" class="key"/>
<text x="89" y="992" class="key tap">Shift</text>
</g>
<g transform="rotate(-5.0, 142, 928)" class="key keypos-21">
<rect rx="6" ry="6" x="114" y="902" width="55" height="52" class="key"/>
<text x="142" y="928" class="key tap">Z</text>
</g>
<g class="key keypos-22">
<rect rx="6" ry="6" x="175" y="879" width="55" height="52" class="key"/>
<text x="203" y="905" class="key tap">X</text>
</g>
<g class="key keypos-23">
<rect rx="6" ry="6" x="235" y="900" width="55" height="52" class="key"/>
<text x="262" y="926" class="key tap">C</text>
</g>
<g class="key keypos-24">
<rect rx="6" ry="6" x="294" y="909" width="55" height="52" class="key"/>
<text x="322" y="935" class="key tap">V</text>
</g>
<g class="key keypos-25">
<rect rx="6" ry="6" x="554" y="909" width="55" height="52" class="key"/>
<text x="582" y="935" class="key tap">N</text>
</g>
<g class="key keypos-26">
<rect rx="6" ry="6" x="613" y="900" width="55" height="52" class="key"/>
<text x="641" y="926" class="key tap">M</text>
</g>
<g class="key keypos-27">
<rect rx="6" ry="6" x="673" y="879" width="55" height="52" class="key"/>
<text x="700" y="905" class="key tap">,</text>
</g>
<g transform="rotate(5.0, 762, 928)" class="key keypos-28">
<rect rx="6" ry="6" x="734" y="902" width="55" height="52" class="key"/>
<text x="762" y="928" class="key tap">.</text>
</g>
<g transform="rotate(15.0, 815, 992)" class="key keypos-29">
<rect rx="6" ry="6" x="787" y="966" width="55" height="52" class="key"/>
<text x="815" y="992" class="key tap">/</text>
</g>
<g transform="rotate(-15.0, 318, 1020)" class="key keypos-30">
<rect rx="6" ry="6" x="290" y="994" width="55" height="52" class="key"/>
<text x="318" y="1020" class="key tap">Alt</text>
</g>
<g class="key keypos-31">
<rect rx="6" ry="6" x="355" y="987" width="55" height="52" class="key"/>
<text x="382" y="1013" class="key tap">␣</text>
</g>
<g class="key keypos-32">
<rect rx="6" ry="6" x="493" y="987" width="55" height="52" class="key"/>
<text x="521" y="1013" class="key tap">NAV</text>
</g>
<g transform="rotate(15.0, 586, 1020)" class="key keypos-33">
<rect rx="6" ry="6" x="558" y="994" width="55" height="52" class="key"/>
<text x="586" y="1020" class="key tap">⮠</text>
</g>
</g>
<g class="layer-SYM">
<text x="30.0" y="1083.0630171842101" class="label">SYM:</text>
<g transform="rotate(-15.0, 60, 1230)" class="key keypos-0">
<rect rx="6" ry="6" x="32" y="1204" width="55" height="52" class="key"/>
<text x="60" y="1230" class="key tap">!</text>
</g>
<g transform="rotate(-5.0, 132, 1163)" class="key keypos-1">
<rect rx="6" ry="6" x="104" y="1137" width="55" height="52" class="key"/>
<text x="132" y="1163" class="key tap">@</text>
</g>
<g class="key keypos-2">
<rect rx="6" ry="6" x="175" y="1113" width="55" height="52" class="key"/>
<text x="203" y="1139" class="key tap">#</text>
</g>
<g class="key keypos-3">
<rect rx="6" ry="6" x="235" y="1134" width="55" height="52" class="key"/>
<text x="262" y="1160" class="key tap">$</text>
</g>
<g class="key keypos-4">
<rect rx="6" ry="6" x="294" y="1143" width="55" height="52" class="key"/>
<text x="322" y="1169" class="key tap">%</text>
</g>
<g class="key keypos-5">
<rect rx="6" ry="6" x="554" y="1143" width="55" height="52" class="key"/>
<text x="582" y="1169" class="key tap">/</text>
</g>
<g class="key keypos-6">
<rect rx="6" ry="6" x="613" y="1134" width="55" height="52" class="key"/>
<text x="641" y="1160" class="key tap">7</text>
</g>
<g class="key keypos-7">
<rect rx="6" ry="6" x="673" y="1113" width="55" height="52" class="key"/>
<text x="700" y="1139" class="key tap">8</text>
</g>
<g transform="rotate(5.0, 771, 1163)" class="key keypos-8">
<rect rx="6" ry="6" x="744" y="1137" width="55" height="52" class="key"/>
<text x="771" y="1163" class="key tap">9</text>
</g>
<g transform="rotate(15.0, 844, 1230)" class="key keypos-9">
<rect rx="6" ry="6" x="816" y="1204" width="55" height="52" class="key"/>
<text x="844" y="1230" class="key tap">,</text>
</g>
<g transform="rotate(-15.0, 74, 1284)" class="key keypos-10">
<rect rx="6" ry="6" x="47" y="1258" width="55" height="52" class="key"/>
<text x="74" y="1284" class="key tap">+</text>
</g>
<g transform="rotate(-5.0, 137, 1218)" class="key keypos-11">
<rect rx="6" ry="6" x="109" y="1192" width="55" height="52" class="key"/>
<text x="137" y="1218" class="key tap">=</text>
</g>
<g class="key keypos-12">
<rect rx="6" ry="6" x="175" y="1169" width="55" height="52" class="key"/>
<text x="203" y="1195" class="key tap">_</text>
</g>
<g class="key keypos-13">
<rect rx="6" ry="6" x="235" y="1190" width="55" height="52" class="key"/>
<text x="262" y="1216" class="key tap">-</text>
</g>
<g class="key keypos-14">
<rect rx="6" ry="6" x="294" y="1199" width="55" height="52" class="key"/>
<text x="322" y="1225" class="key tap">^</text>
</g>
<g class="key keypos-15">
<rect rx="6" ry="6" x="554" y="1199" width="55" height="52" class="key"/>
<text x="582" y="1225" class="key tap">0</text>
</g>
<g class="key keypos-16">
<rect rx="6" ry="6" x="613" y="1190" width="55" height="52" class="key"/>
<text x="641" y="1216" class="key tap">4</text>
</g>
<g class="key keypos-17">
<rect rx="6" ry="6" x="673" y="1169" width="55" height="52" class="key"/>
<text x="700" y="1195" class="key tap">5</text>
</g>
<g transform="rotate(5.0, 766, 1218)" class="key keypos-18">
<rect rx="6" ry="6" x="739" y="1192" width="55" height="52" class="key"/>
<text x="766" y="1218" class="key tap">6</text>
</g>
<g transform="rotate(15.0, 829, 1284)" class="key keypos-19">
<rect rx="6" ry="6" x="801" y="1258" width="55" height="52" class="key"/>
<text x="829" y="1284" class="key tap">.</text>
</g>
<g transform="rotate(-15.0, 89, 1338)" class="key keypos-20">
<rect rx="6" ry="6" x="61" y="1312" width="55" height="52" class="key"/>
</g>
<g transform="rotate(-5.0, 142, 1274)" class="key keypos-21">
<rect rx="6" ry="6" x="114" y="1248" width="55" height="52" class="key"/>
<text x="142" y="1274" class="key tap">¿</text>
</g>
<g class="key keypos-22">
<rect rx="6" ry="6" x="175" y="1225" width="55" height="52" class="key"/>
<text x="203" y="1251" class="key tap">*</text>
</g>
<g class="key keypos-23">
<rect rx="6" ry="6" x="235" y="1246" width="55" height="52" class="key"/>
<text x="262" y="1272" class="key tap">&amp;</text>
</g>
<g class="key keypos-24">
<rect rx="6" ry="6" x="294" y="1255" width="55" height="52" class="key"/>
</g>
<g class="key keypos-25">
<rect rx="6" ry="6" x="554" y="1255" width="55" height="52" class="key"/>
<text x="582" y="1281" class="key tap">;</text>
</g>
<g class="key keypos-26">
<rect rx="6" ry="6" x="613" y="1246" width="55" height="52" class="key"/>
<text x="641" y="1272" class="key tap">1</text>
</g>
<g class="key keypos-27">
<rect rx="6" ry="6" x="673" y="1225" width="55" height="52" class="key"/>
<text x="700" y="1251" class="key tap">2</text>
</g>
<g transform="rotate(5.0, 762, 1274)" class="key keypos-28">
<rect rx="6" ry="6" x="734" y="1248" width="55" height="52" class="key"/>
<text x="762" y="1274" class="key tap">3</text>
</g>
<g transform="rotate(15.0, 815, 1338)" class="key keypos-29">
<rect rx="6" ry="6" x="787" y="1312" width="55" height="52" class="key"/>
<text x="815" y="1338" class="key tap">/</text>
</g>
<g transform="rotate(-15.0, 318, 1366)" class="key keypos-30">
<rect rx="6" ry="6" x="290" y="1340" width="55" height="52" class="key"/>
<text x="318" y="1366" class="key tap">␣</text>
</g>
<g class="key trans keypos-31">
<rect rx="6" ry="6" x="355" y="1333" width="55" height="52" class="key trans"/>
<text x="382" y="1359" class="key trans tap">▽</text>
</g>
<g class="key held keypos-32">
<rect rx="6" ry="6" x="493" y="1333" width="55" height="52" class="key held"/>
</g>
<g transform="rotate(15.0, 586, 1366)" class="key keypos-33">
<rect rx="6" ry="6" x="558" y="1340" width="55" height="52" class="key"/>
<text x="586" y="1366" class="key tap">Reset</text>
</g>
</g>
<g class="layer-NAV">
<text x="30.0" y="1429.1506895789469" class="label">NAV:</text>
<g transform="rotate(-15.0, 60, 1576)" class="key keypos-0">
<rect rx="6" ry="6" x="32" y="1550" width="55" height="52" class="key"/>
<text x="60" y="1576" class="key tap">
<tspan x="59.651045923136095" dy="-0.6em">Win</tspan><tspan x="59.651045923136095" dy="1.2em">Close</tspan>
</text>
</g>
<g transform="rotate(-5.0, 132, 1509)" class="key keypos-1">
<rect rx="6" ry="6" x="104" y="1483" width="55" height="52" class="key"/>
<text x="132" y="1509" class="key tap">
<tspan x="131.94810654845344" dy="-0.6em">Tab</tspan><tspan x="131.94810654845344" dy="1.2em">Right</tspan>
</text>
</g>
<g class="key keypos-2">
<rect rx="6" ry="6" x="175" y="1459" width="55" height="52" class="key"/>
<text x="203" y="1485" class="key tap">
<tspan x="203.124" dy="-0.6em">Tab</tspan><tspan x="203.124" dy="1.2em">Left</tspan>
</text>
</g>
<g class="key keypos-3">
<rect rx="6" ry="6" x="235" y="1480" width="55" height="52" class="key"/>
<text x="262" y="1506" class="key tap">
<tspan x="262.37199999999996" dy="-0.6em">Tab</tspan><tspan x="262.37199999999996" dy="1.2em">Close</tspan>
</text>
</g>
<g class="key keypos-4">
<rect rx="6" ry="6" x="294" y="1490" width="55" height="52" class="key"/>
<text x="322" y="1516" class="key tap">
<tspan x="321.676" dy="-0.6em">Vol</tspan><tspan x="321.676" dy="1.2em">Up</tspan>
</text>
</g>
<g class="key keypos-5">
<rect rx="6" ry="6" x="554" y="1490" width="55" height="52" class="key"/>
<text x="582" y="1516" class="key tap">Insert</text>
</g>
<g class="key keypos-6">
<rect rx="6" ry="6" x="613" y="1480" width="55" height="52" class="key"/>
<text x="641" y="1506" class="key tap">
<tspan x="640.932" dy="-0.6em">Page</tspan><tspan x="640.932" dy="1.2em">Down</tspan>
</text>
</g>
<g class="key keypos-7">
<rect rx="6" ry="6" x="673" y="1459" width="55" height="52" class="key"/>
<text x="700" y="1485" class="key tap">🡅</text>
</g>
<g transform="rotate(5.0, 771, 1509)" class="key keypos-8">
<rect rx="6" ry="6" x="744" y="1483" width="55" height="52" class="key"/>
<text x="771" y="1509" class="key tap">
<tspan x="771.3561065484535" dy="-0.6em">Page</tspan><tspan x="771.3561065484535" dy="1.2em">Up</tspan>
</text>
</g>
<g transform="rotate(15.0, 844, 1576)" class="key keypos-9">
<rect rx="6" ry="6" x="816" y="1550" width="55" height="52" class="key"/>
<text x="844" y="1576" class="key tap">Calc</text>
</g>
<g transform="rotate(-15.0, 74, 1630)" class="key keypos-10">
<rect rx="6" ry="6" x="47" y="1604" width="55" height="52" class="key"/>
<text x="74" y="1630" class="key tap">Ctrl</text>
</g>
<g transform="rotate(-5.0, 137, 1564)" class="key keypos-11">
<rect rx="6" ry="6" x="109" y="1538" width="55" height="52" class="key"/>
<text x="137" y="1564" class="key tap">Gui</text>
</g>
<g class="key keypos-12">
<rect rx="6" ry="6" x="175" y="1515" width="55" height="52" class="key"/>
<text x="203" y="1541" class="key tap">Alt</text>
</g>
<g class="key keypos-13">
<rect rx="6" ry="6" x="235" y="1536" width="55" height="52" class="key"/>
<text x="262" y="1562" class="key tap">↹</text>
<text x="262" y="1586" class="key hold">Shift</text>
</g>
<g class="key keypos-14">
<rect rx="6" ry="6" x="294" y="1546" width="55" height="52" class="key"/>
<text x="322" y="1572" class="key tap">
<tspan x="321.676" dy="-0.6em">Vol</tspan><tspan x="321.676" dy="1.2em">Down</tspan>
</text>
</g>
<g class="key keypos-15">
<rect rx="6" ry="6" x="554" y="1546" width="55" height="52" class="key"/>
<text x="582" y="1572" class="key tap">Home</text>
</g>
<g class="key keypos-16">
<rect rx="6" ry="6" x="613" y="1536" width="55" height="52" class="key"/>
<text x="641" y="1562" class="key tap">🡄</text>
</g>
<g class="key keypos-17">
<rect rx="6" ry="6" x="673" y="1515" width="55" height="52" class="key"/>
<text x="700" y="1541" class="key tap">🡇</text>
</g>
<g transform="rotate(5.0, 766, 1564)" class="key keypos-18">
<rect rx="6" ry="6" x="739" y="1538" width="55" height="52" class="key"/>
<text x="766" y="1564" class="key tap">🡆</text>
</g>
<g transform="rotate(15.0, 829, 1630)" class="key keypos-19">
<rect rx="6" ry="6" x="801" y="1604" width="55" height="52" class="key"/>
<text x="829" y="1630" class="key tap">End</text>
</g>
<g transform="rotate(-15.0, 89, 1684)" class="key keypos-20">
<rect rx="6" ry="6" x="61" y="1658" width="55" height="52" class="key"/>
</g>
<g transform="rotate(-5.0, 142, 1620)" class="key keypos-21">
<rect rx="6" ry="6" x="114" y="1594" width="55" height="52" class="key"/>
<text x="142" y="1620" class="key tap">
<tspan x="141.69189345154655" dy="-0.6em">Win</tspan><tspan x="141.69189345154655" dy="1.2em">Prev</tspan>
</text>
</g>
<g class="key keypos-22">
<rect rx="6" ry="6" x="175" y="1571" width="55" height="52" class="key"/>
<text x="203" y="1597" class="key tap">
<tspan x="203.124" dy="-0.6em">Win</tspan><tspan x="203.124" dy="1.2em">Next</tspan>
</text>
</g>
<g class="key keypos-23">
<rect rx="6" ry="6" x="235" y="1592" width="55" height="52" class="key"/>
<text x="262" y="1618" class="key tap">Paste</text>
</g>
<g class="key keypos-24">
<rect rx="6" ry="6" x="294" y="1602" width="55" height="52" class="key"/>
<text x="322" y="1628" class="key tap">⏯</text>
</g>
<g class="key keypos-25">
<rect rx="6" ry="6" x="554" y="1602" width="55" height="52" class="key"/>
</g>
<g class="key keypos-26">
<rect rx="6" ry="6" x="613" y="1592" width="55" height="52" class="key"/>
<text x="641" y="1618" class="key tap">⌦</text>
</g>
<g class="key keypos-27">
<rect rx="6" ry="6" x="673" y="1571" width="55" height="52" class="key"/>
<text x="700" y="1597" class="key tap">⏮️</text>
</g>
<g transform="rotate(5.0, 762, 1620)" class="key keypos-28">
<rect rx="6" ry="6" x="734" y="1594" width="55" height="52" class="key"/>
<text x="762" y="1620" class="key tap">⏭️</text>
</g>
<g transform="rotate(15.0, 815, 1684)" class="key keypos-29">
<rect rx="6" ry="6" x="787" y="1658" width="55" height="52" class="key"/>
</g>
<g transform="rotate(-15.0, 318, 1713)" class="key keypos-30">
<rect rx="6" ry="6" x="290" y="1687" width="55" height="52" class="key"/>
<text x="318" y="1713" class="key tap">Reset</text>
</g>
<g class="key held keypos-31">
<rect rx="6" ry="6" x="355" y="1680" width="55" height="52" class="key held"/>
</g>
<g class="key trans keypos-32">
<rect rx="6" ry="6" x="493" y="1680" width="55" height="52" class="key trans"/>
<text x="521" y="1706" class="key trans tap">▽</text>
</g>
<g transform="rotate(15.0, 586, 1713)" class="key keypos-33">
<rect rx="6" ry="6" x="558" y="1687" width="55" height="52" class="key"/>
<text x="586" y="1713" class="key tap">Shift</text>
</g>
<g class="combo combopos-0">
<rect rx="6" ry="6" x="308" y="1531" width="28" height="26" class="combo"/>
<text x="322" y="1544" class="combo tap">⏯</text>
</g>
</g>
<g class="layer-FUN">
<text x="30.0" y="1775.2383619736836" class="label">FUN:</text>
<g transform="rotate(-15.0, 60, 1922)" class="key keypos-0">
<rect rx="6" ry="6" x="32" y="1896" width="55" height="52" class="key"/>
<text x="60" y="1922" class="key tap">F1</text>
</g>
<g transform="rotate(-5.0, 132, 1855)" class="key keypos-1">
<rect rx="6" ry="6" x="104" y="1829" width="55" height="52" class="key"/>
<text x="132" y="1855" class="key tap">F2</text>
</g>
<g class="key keypos-2">
<rect rx="6" ry="6" x="175" y="1805" width="55" height="52" class="key"/>
<text x="203" y="1831" class="key tap">F3</text>
</g>
<g class="key keypos-3">
<rect rx="6" ry="6" x="235" y="1826" width="55" height="52" class="key"/>
<text x="262" y="1852" class="key tap">F4</text>
</g>
<g class="key keypos-4">
<rect rx="6" ry="6" x="294" y="1836" width="55" height="52" class="key"/>
<text x="322" y="1862" class="key tap">F5</text>
</g>
<g class="key keypos-5">
<rect rx="6" ry="6" x="554" y="1836" width="55" height="52" class="key"/>
<text x="582" y="1862" class="key tap">
<tspan x="581.628" dy="-0.6em">Out</tspan><tspan x="581.628" dy="1.2em">USB</tspan>
</text>
</g>
<g class="key keypos-6">
<rect rx="6" ry="6" x="613" y="1826" width="55" height="52" class="key"/>
<text x="641" y="1852" class="key tap">
<tspan x="640.932" dy="-0.6em">Out</tspan><tspan x="640.932" dy="1.2em">BLE</tspan>
</text>
</g>
<g class="key keypos-7">
<rect rx="6" ry="6" x="673" y="1805" width="55" height="52" class="key"/>
<text x="700" y="1831" class="key tap">DEF</text>
</g>
<g transform="rotate(5.0, 771, 1855)" class="key keypos-8">
<rect rx="6" ry="6" x="744" y="1829" width="55" height="52" class="key"/>
<text x="771" y="1855" class="key tap">BRD</text>
</g>
<g transform="rotate(15.0, 844, 1922)" class="key keypos-9">
<rect rx="6" ry="6" x="816" y="1896" width="55" height="52" class="key"/>
<text x="844" y="1922" class="key tap">GME</text>
</g>
<g transform="rotate(-15.0, 74, 1976)" class="key keypos-10">
<rect rx="6" ry="6" x="47" y="1950" width="55" height="52" class="key"/>
<text x="74" y="1976" class="key tap">F6</text>
</g>
<g transform="rotate(-5.0, 137, 1911)" class="key keypos-11">
<rect rx="6" ry="6" x="109" y="1885" width="55" height="52" class="key"/>
<text x="137" y="1911" class="key tap">F7</text>
</g>
<g class="key keypos-12">
<rect rx="6" ry="6" x="175" y="1861" width="55" height="52" class="key"/>
<text x="203" y="1887" class="key tap">F8</text>
</g>
<g class="key keypos-13">
<rect rx="6" ry="6" x="235" y="1882" width="55" height="52" class="key"/>
<text x="262" y="1908" class="key tap">F9</text>
</g>
<g class="key keypos-14">
<rect rx="6" ry="6" x="294" y="1892" width="55" height="52" class="key"/>
<text x="322" y="1918" class="key tap">F10</text>
</g>
<g class="key keypos-15">
<rect rx="6" ry="6" x="554" y="1892" width="55" height="52" class="key"/>
<text x="582" y="1918" class="key tap">
<tspan x="581.628" dy="-0.6em">BT</tspan><tspan x="581.628" dy="1.2em">1</tspan>
</text>
</g>
<g class="key keypos-16">
<rect rx="6" ry="6" x="613" y="1882" width="55" height="52" class="key"/>
<text x="641" y="1908" class="key tap">
<tspan x="640.932" dy="-0.6em">BT</tspan><tspan x="640.932" dy="1.2em">2</tspan>
</text>
</g>
<g class="key keypos-17">
<rect rx="6" ry="6" x="673" y="1861" width="55" height="52" class="key"/>
<text x="700" y="1887" class="key tap">
<tspan x="700.1800000000001" dy="-0.6em">BT</tspan><tspan x="700.1800000000001" dy="1.2em">3</tspan>
</text>
</g>
<g transform="rotate(5.0, 766, 1911)" class="key keypos-18">
<rect rx="6" ry="6" x="739" y="1885" width="55" height="52" class="key"/>
<text x="766" y="1911" class="key tap">
<tspan x="766.4841065484535" dy="-0.6em">BT</tspan><tspan x="766.4841065484535" dy="1.2em">4</tspan>
</text>
</g>
<g transform="rotate(15.0, 829, 1976)" class="key keypos-19">
<rect rx="6" ry="6" x="801" y="1950" width="55" height="52" class="key"/>
<text x="829" y="1976" class="key tap">
<tspan x="829.1489540768639" dy="-0.6em">BT</tspan><tspan x="829.1489540768639" dy="1.2em">5</tspan>
</text>
</g>
<g transform="rotate(-15.0, 89, 2030)" class="key keypos-20">
<rect rx="6" ry="6" x="61" y="2004" width="55" height="52" class="key"/>
</g>
<g transform="rotate(-5.0, 142, 1966)" class="key keypos-21">
<rect rx="6" ry="6" x="114" y="1940" width="55" height="52" class="key"/>
<text x="142" y="1966" class="key tap">
<tspan x="141.69189345154655" dy="-0.6em">Desk</tspan><tspan x="141.69189345154655" dy="1.2em">Left</tspan>
</text>
</g>
<g class="key keypos-22">
<rect rx="6" ry="6" x="175" y="1917" width="55" height="52" class="key"/>
<text x="203" y="1943" class="key tap">
<tspan x="203.124" dy="-0.6em">Desk</tspan><tspan x="203.124" dy="1.2em">Right</tspan>
</text>
</g>
<g class="key keypos-23">
<rect rx="6" ry="6" x="235" y="1938" width="55" height="52" class="key"/>
<text x="262" y="1964" class="key tap">F11</text>
</g>
<g class="key keypos-24">
<rect rx="6" ry="6" x="294" y="1948" width="55" height="52" class="key"/>
<text x="322" y="1974" class="key tap">F12</text>
</g>
<g class="key keypos-25">
<rect rx="6" ry="6" x="554" y="1948" width="55" height="52" class="key"/>
</g>
<g class="key keypos-26">
<rect rx="6" ry="6" x="613" y="1938" width="55" height="52" class="key"/>
<text x="641" y="1964" class="key tap">
<tspan x="640.932" dy="-0.6em">Caps</tspan><tspan x="640.932" dy="1.2em">Lock</tspan>
</text>
</g>
<g class="key keypos-27">
<rect rx="6" ry="6" x="673" y="1917" width="55" height="52" class="key"/>
<text x="700" y="1943" class="key tap">
<tspan x="700.1800000000001" dy="-0.6em">Print</tspan><tspan x="700.1800000000001" dy="1.2em">Scrn</tspan>
</text>
</g>
<g transform="rotate(5.0, 762, 1966)" class="key keypos-28">
<rect rx="6" ry="6" x="734" y="1940" width="55" height="52" class="key"/>
<text x="762" y="1966" class="key tap">
<tspan x="761.6121065484535" dy="-0.6em">Pause</tspan><tspan x="761.6121065484535" dy="1.2em">Break</tspan>
</text>
</g>
<g transform="rotate(15.0, 815, 2030)" class="key keypos-29">
<rect rx="6" ry="6" x="787" y="2004" width="55" height="52" class="key"/>
</g>
<g transform="rotate(-15.0, 318, 2059)" class="key keypos-30">
<rect rx="6" ry="6" x="290" y="2033" width="55" height="52" class="key"/>
<text x="318" y="2059" class="key tap">Boot</text>
</g>
<g class="key held keypos-31">
<rect rx="6" ry="6" x="355" y="2026" width="55" height="52" class="key held"/>
</g>
<g class="key held keypos-32">
<rect rx="6" ry="6" x="493" y="2026" width="55" height="52" class="key held"/>
</g>
<g transform="rotate(15.0, 586, 2059)" class="key keypos-33">
<rect rx="6" ry="6" x="558" y="2033" width="55" height="52" class="key"/>
<text x="586" y="2059" class="key tap">Boot</text>
</g>
<g class="combo combopos-0">
<path d="M172,1995 h-25 a6.0,6.0 0 0 1 -6.0,-6.0 v-4" class="combo"/>
<path d="M172,1995 h25 a6.0,6.0 0 0 0 6.0,-6.0 v-27" class="combo"/>
<rect rx="6" ry="6" x="158" y="1982" width="28" height="26" class="combo"/>
<text x="172" y="1995" class="combo tap">F12</text>
</g>
<g class="combo combopos-1">
<path d="M731,1995 h-25 a6.0,6.0 0 0 1 -6.0,-6.0 v-27" class="combo"/>
<path d="M731,1995 h25 a6.0,6.0 0 0 0 6.0,-6.0 v-4" class="combo"/>
<rect rx="6" ry="6" x="717" y="1982" width="28" height="26" class="combo"/>
<text x="731" y="1995" class="combo tap">
<tspan x="730.8960532742268" dy="-0.6em">BT</tspan><tspan x="730.8960532742268" dy="1.2em">CLR</tspan>
</text>
</g>
</g>
</svg>
